<svg width="96" height="125" viewBox="0 0 96 125" fill="none" xmlns="http://www.w3.org/2000/svg">
<path fill-rule="evenodd" clip-rule="evenodd" d="M8.96526 0.0283203H66.1515L95.5142 29.3909V116.487C95.5142 121.144 91.6869 124.971 87.0294 124.971H8.96526C4.30774 124.971 0.480469 121.144 0.480469 116.487V8.51311C0.480469 3.85559 4.30774 0.0283203 8.96526 0.0283203Z" fill="#FFEFC5"/>
<path fill-rule="evenodd" clip-rule="evenodd" d="M66.1504 0.0283203L95.513 29.391H72.6507C69.0664 29.391 66.1504 26.4547 66.1504 22.8704V0.0283203Z" fill="#FF9F4A"/>
<path d="M14.5545 52.2333C13.623 52.2333 12.8535 51.484 12.8535 50.5323C12.8535 49.5805 13.623 48.811 14.5545 48.811H81.4203C82.3721 48.811 83.1416 49.5805 83.1416 50.5323C83.1416 51.484 82.3721 52.2333 81.4203 52.2333H14.5545ZM14.5545 103.669C13.623 103.669 12.8535 102.899 12.8535 101.968C12.8535 101.016 13.623 100.246 14.5545 100.246H81.4203C82.3721 100.246 83.1416 101.016 83.1416 101.968C83.1416 102.899 82.3721 103.669 81.4203 103.669H14.5545ZM14.5545 90.8097C13.623 90.8097 12.8535 90.0605 12.8535 89.1087C12.8535 88.157 13.623 87.3875 14.5545 87.3875H81.4203C82.3721 87.3875 83.1416 88.157 83.1416 89.1087C83.1416 90.0605 82.3721 90.8097 81.4203 90.8097H14.5545ZM14.5545 77.9509C13.623 77.9509 12.8535 77.2017 12.8535 76.2499C12.8535 75.2982 13.623 74.5286 14.5545 74.5286H81.4203C82.3721 74.5286 83.1416 75.2982 83.1416 76.2499C83.1416 77.2017 82.3721 77.9509 81.4203 77.9509H14.5545ZM14.5545 65.0921C13.623 65.0921 12.8535 64.3429 12.8535 63.3911C12.8535 62.4393 13.623 61.6698 14.5545 61.6698H81.4203C82.3721 61.6698 83.1416 62.4393 83.1416 63.3911C83.1416 64.3429 82.3721 65.0921 81.4203 65.0921H14.5545Z" fill="#FF9F4A"/>
</svg>
