<svg width="18" height="20" viewBox="0 0 18 20" fill="none" xmlns="http://www.w3.org/2000/svg">
<path fill-rule="evenodd" clip-rule="evenodd" d="M6.42132 11.9897C8.58313 14.8861 10.3671 15.5787 11.8363 14.0046C13.0537 12.9761 14.5438 13.228 16.2439 14.7392C17.965 16.4392 17.7761 17.8664 15.6772 19.0208C11.4376 21.3085 7.61766 19.5455 3.5459 14.1725C-0.504862 8.82044 -1.21847 4.64374 2.0977 1.18065C3.77678 -0.561389 5.20399 -0.372493 6.37934 1.72635C7.38679 3.78321 7.23987 5.27339 5.93859 6.19688C4.04963 7.18334 4.23852 9.09329 6.42132 11.9897ZM10.2832 3.42641C9.94738 3.32147 9.73749 2.98565 9.82144 2.62885C9.92639 2.29304 10.2622 2.10414 10.598 2.18809C15.0476 3.34246 17.1464 6.11293 16.8945 10.4575C16.8736 10.7933 16.5797 11.0662 16.2229 11.0452C15.8871 11.0242 15.6142 10.7304 15.6352 10.3736C15.8241 6.72159 14.0401 4.41287 10.2832 3.42641ZM10.4091 6.5327C10.0733 6.44874 9.84243 6.11293 9.92639 5.75613C10.0103 5.42031 10.3462 5.21043 10.682 5.27339C12.0042 5.56723 12.9907 6.13392 13.5994 6.95247C14.25 7.77102 14.5019 8.84142 14.3759 10.1427C14.3549 10.4995 14.0401 10.7514 13.6833 10.7094C13.3265 10.6884 13.0746 10.3736 13.1166 10.0168C13.2006 9.05131 13.0327 8.29573 12.5919 7.72904C12.1512 7.14136 11.4166 6.74258 10.4091 6.5327Z" fill="#8FC3DF"/>
</svg>
