<svg width="192" height="35" viewBox="0 0 192 35" fill="none" xmlns="http://www.w3.org/2000/svg">
<path d="M4.58789 0.203125L7.875 9.48438L11.1445 0.203125H14.6074V13H11.9619V9.50195L12.2256 3.46387L8.77148 13H6.96094L3.51562 3.47266L3.7793 9.50195V13H1.14258V0.203125H4.58789ZM19.5908 4.81738H21.6475C23.1533 4.81738 24.3457 5.18359 25.2246 5.91602C26.1094 6.64258 26.5518 7.62402 26.5518 8.86035C26.5518 10.1025 26.1123 11.1016 25.2334 11.8574C24.3604 12.6074 23.1973 12.9883 21.7441 13H16.9365V0.203125H19.5908V4.81738ZM30.2871 13H27.6504V0.203125H30.2871V13ZM19.5908 6.94434V10.8818H21.6914C22.3652 10.8818 22.9014 10.6973 23.2998 10.3281C23.7041 9.95898 23.9062 9.46387 23.9062 8.84277C23.9062 8.2627 23.7129 7.80566 23.3262 7.47168C22.9453 7.13184 22.4209 6.95605 21.7529 6.94434H19.5908ZM43.4004 3.72754C43.4004 3.24121 43.21 2.86035 42.8291 2.58496C42.4482 2.30371 41.9443 2.16309 41.3174 2.16309C40.7549 2.16309 40.2861 2.30371 39.9111 2.58496C39.542 2.86035 39.3574 3.2207 39.3574 3.66602H36.7207C36.7207 2.97461 36.9141 2.35352 37.3008 1.80273C37.6934 1.24609 38.2471 0.8125 38.9619 0.501953C39.6826 0.191406 40.4678 0.0361328 41.3174 0.0361328C42.7939 0.0361328 43.9512 0.352539 44.7891 0.985352C45.627 1.61816 46.0459 2.51465 46.0459 3.6748C46.0459 4.24316 45.873 4.77051 45.5273 5.25684C45.1875 5.74316 44.7012 6.13281 44.0684 6.42578C44.7715 6.67188 45.3105 7.04688 45.6855 7.55078C46.0605 8.04883 46.248 8.66992 46.248 9.41406C46.248 10.5625 45.7969 11.4766 44.8945 12.1562C43.998 12.8301 42.8057 13.167 41.3174 13.167C40.3857 13.167 39.5479 13.0088 38.8037 12.6924C38.0596 12.3701 37.4941 11.9336 37.1074 11.3828C36.7266 10.8262 36.5361 10.1816 36.5361 9.44922H39.1904C39.1904 9.90625 39.3896 10.29 39.7881 10.6006C40.1865 10.9053 40.6963 11.0576 41.3174 11.0576C42.0205 11.0576 42.5742 10.8994 42.9785 10.583C43.3887 10.2666 43.5938 9.86523 43.5938 9.37891C43.5938 8.71094 43.4121 8.2334 43.0488 7.94629C42.6855 7.65332 42.1553 7.50684 41.458 7.50684H39.8848V5.44141H41.5107C42.7705 5.42383 43.4004 4.85254 43.4004 3.72754ZM55.4238 10.3633H50.8008L49.9219 13H47.1182L51.8818 0.203125H54.3252L59.1152 13H56.3115L55.4238 10.3633ZM51.5127 8.22754H54.7119L53.1035 3.4375L51.5127 8.22754ZM68.6602 2.33887H62.9473V4.81738H65.0039C66.5098 4.81738 67.7021 5.18359 68.5811 5.91602C69.4658 6.64258 69.9082 7.62402 69.9082 8.86035C69.9082 10.1025 69.4688 11.1016 68.5898 11.8574C67.7168 12.6074 66.5537 12.9883 65.1006 13H60.2842V0.203125H68.6602V2.33887ZM62.9473 6.94434V10.8818H65.0479C65.7217 10.8818 66.2578 10.6973 66.6562 10.3281C67.0605 9.95898 67.2627 9.46387 67.2627 8.84277C67.2627 8.2627 67.0693 7.80566 66.6826 7.47168C66.3018 7.13184 65.7773 6.95605 65.1094 6.94434H62.9473ZM82.1074 6.8916C82.1074 8.15137 81.8848 9.25586 81.4395 10.2051C80.9941 11.1543 80.3555 11.8867 79.5234 12.4023C78.6973 12.918 77.748 13.1758 76.6758 13.1758C75.6152 13.1758 74.6689 12.9209 73.8369 12.4111C73.0049 11.9014 72.3604 11.1748 71.9033 10.2314C71.4463 9.28223 71.2148 8.19238 71.209 6.96191V6.3291C71.209 5.06934 71.4346 3.96191 71.8857 3.00684C72.3428 2.0459 72.9844 1.31055 73.8105 0.800781C74.6426 0.285156 75.5918 0.0273438 76.6582 0.0273438C77.7246 0.0273438 78.6709 0.285156 79.4971 0.800781C80.3291 1.31055 80.9707 2.0459 81.4219 3.00684C81.8789 3.96191 82.1074 5.06641 82.1074 6.32031V6.8916ZM79.4355 6.31152C79.4355 4.96973 79.1953 3.9502 78.7148 3.25293C78.2344 2.55566 77.5488 2.20703 76.6582 2.20703C75.7734 2.20703 75.0908 2.55273 74.6104 3.24414C74.1299 3.92969 73.8867 4.9375 73.8809 6.26758V6.8916C73.8809 8.19824 74.1211 9.21191 74.6016 9.93262C75.082 10.6533 75.7734 11.0137 76.6758 11.0137C77.5605 11.0137 78.2402 10.668 78.7148 9.97656C79.1895 9.2793 79.4297 8.26562 79.4355 6.93555V6.31152ZM92.9004 2.33887H88.9805V13H86.3438V2.33887H82.4766V0.203125H92.9004V2.33887ZM102.085 0.203125H104.73V13H102.085V4.50098L96.9609 13H94.3242V0.203125H96.9609V8.71973L102.085 0.203125ZM110.461 0.203125L113.748 9.48438L117.018 0.203125H120.48V13H117.835V9.50195L118.099 3.46387L114.645 13H112.834L109.389 3.47266L109.652 9.50195V13H107.016V0.203125H110.461ZM132.829 8.7373C132.729 10.1143 132.22 11.1982 131.3 11.9893C130.386 12.7803 129.179 13.1758 127.679 13.1758C126.038 13.1758 124.746 12.625 123.803 11.5234C122.865 10.416 122.396 8.89844 122.396 6.9707V6.18848C122.396 4.95801 122.613 3.87402 123.047 2.93652C123.48 1.99902 124.099 1.28125 124.901 0.783203C125.71 0.279297 126.647 0.0273438 127.714 0.0273438C129.19 0.0273438 130.38 0.422852 131.282 1.21387C132.185 2.00488 132.706 3.11523 132.847 4.54492H130.21C130.146 3.71875 129.914 3.12109 129.516 2.75195C129.123 2.37695 128.522 2.18945 127.714 2.18945C126.835 2.18945 126.176 2.50586 125.736 3.13867C125.303 3.76562 125.08 4.74121 125.068 6.06543V7.03223C125.068 8.41504 125.276 9.42578 125.692 10.0645C126.114 10.7031 126.776 11.0225 127.679 11.0225C128.493 11.0225 129.1 10.8379 129.498 10.4688C129.902 10.0938 130.134 9.5166 130.192 8.7373H132.829ZM140.476 13V8.38574H138.331L136.02 13H133.172L135.905 7.54199C134.587 6.81543 133.928 5.6875 133.928 4.1582C133.928 2.9043 134.338 1.93457 135.158 1.24902C135.979 0.563477 137.124 0.214844 138.595 0.203125H143.121V13H140.476ZM136.564 4.35156C136.564 5.06641 136.737 5.58496 137.083 5.90723C137.435 6.22949 137.959 6.39062 138.656 6.39062H140.476V2.33887H138.656C137.262 2.33887 136.564 3.00977 136.564 4.35156Z" fill="#292F5D"/>
<path d="M11.6543 27.8916C11.6543 29.1514 11.4316 30.2559 10.9863 31.2051C10.541 32.1543 9.90234 32.8867 9.07031 33.4023C8.24414 33.918 7.29492 34.1758 6.22266 34.1758C5.16211 34.1758 4.21582 33.9209 3.38379 33.4111C2.55176 32.9014 1.90723 32.1748 1.4502 31.2314C0.993164 30.2822 0.761719 29.1924 0.755859 27.9619V27.3291C0.755859 26.0693 0.981445 24.9619 1.43262 24.0068C1.88965 23.0459 2.53125 22.3105 3.35742 21.8008C4.18945 21.2852 5.13867 21.0273 6.20508 21.0273C7.27148 21.0273 8.21777 21.2852 9.04395 21.8008C9.87598 22.3105 10.5176 23.0459 10.9688 24.0068C11.4258 24.9619 11.6543 26.0664 11.6543 27.3203V27.8916ZM8.98242 27.3115C8.98242 25.9697 8.74219 24.9502 8.26172 24.2529C7.78125 23.5557 7.0957 23.207 6.20508 23.207C5.32031 23.207 4.6377 23.5527 4.15723 24.2441C3.67676 24.9297 3.43359 25.9375 3.42773 27.2676V27.8916C3.42773 29.1982 3.66797 30.2119 4.14844 30.9326C4.62891 31.6533 5.32031 32.0137 6.22266 32.0137C7.10742 32.0137 7.78711 31.668 8.26172 30.9766C8.73633 30.2793 8.97656 29.2656 8.98242 27.9355V27.3115ZM18.0527 34V21.2031H22.5352C24.0879 21.2031 25.2656 21.502 26.0684 22.0996C26.8711 22.6914 27.2725 23.5615 27.2725 24.71C27.2725 25.3369 27.1113 25.8906 26.7891 26.3711C26.4668 26.8457 26.0186 27.1943 25.4443 27.417C26.1006 27.5811 26.6162 27.9121 26.9912 28.4102C27.3721 28.9082 27.5625 29.5176 27.5625 30.2383C27.5625 31.4688 27.1699 32.4004 26.3848 33.0332C25.5996 33.666 24.4805 33.9883 23.0273 34H18.0527ZM20.6895 28.4277V31.8818H22.9482C23.5693 31.8818 24.0527 31.7354 24.3984 31.4424C24.75 31.1436 24.9258 30.7334 24.9258 30.2119C24.9258 29.04 24.3193 28.4453 23.1064 28.4277H20.6895ZM20.6895 26.5645H22.6406C23.9707 26.541 24.6357 26.0107 24.6357 24.9736C24.6357 24.3936 24.4658 23.9775 24.126 23.7256C23.792 23.4678 23.2617 23.3389 22.5352 23.3389H20.6895V26.5645ZM36.7734 31.3633H32.1504L31.2715 34H28.4678L33.2314 21.2031H35.6748L40.4648 34H37.6611L36.7734 31.3633ZM32.8623 29.2275H36.0615L34.4531 24.4375L32.8623 29.2275ZM44.2881 21.2031V31.8818H47.8389V21.2031H50.4844V31.8818H54V21.2031H56.6367V34H41.6426V21.2031H44.2881ZM66.6211 28.4541H61.5586V31.8818H67.5V34H58.9219V21.2031H67.4824V23.3389H61.5586V26.3887H66.6211V28.4541ZM72.4922 21.2031L75.7793 30.4844L79.0488 21.2031H82.5117V34H79.8662V30.502L80.1299 24.4639L76.6758 34H74.8652L71.4199 24.4727L71.6836 30.502V34H69.0469V21.2031H72.4922ZM93.4717 28.7705H91.9512V34H89.3145V21.2031H91.9512V26.3271H93.1553L96.2842 21.2031H99.501L95.5547 27.2588L99.9141 34H96.7676L93.4717 28.7705ZM111.164 27.8916C111.164 29.1514 110.941 30.2559 110.496 31.2051C110.051 32.1543 109.412 32.8867 108.58 33.4023C107.754 33.918 106.805 34.1758 105.732 34.1758C104.672 34.1758 103.726 33.9209 102.894 33.4111C102.062 32.9014 101.417 32.1748 100.96 31.2314C100.503 30.2822 100.271 29.1924 100.266 27.9619V27.3291C100.266 26.0693 100.491 24.9619 100.942 24.0068C101.399 23.0459 102.041 22.3105 102.867 21.8008C103.699 21.2852 104.648 21.0273 105.715 21.0273C106.781 21.0273 107.728 21.2852 108.554 21.8008C109.386 22.3105 110.027 23.0459 110.479 24.0068C110.936 24.9619 111.164 26.0664 111.164 27.3203V27.8916ZM108.492 27.3115C108.492 25.9697 108.252 24.9502 107.771 24.2529C107.291 23.5557 106.605 23.207 105.715 23.207C104.83 23.207 104.147 23.5527 103.667 24.2441C103.187 24.9297 102.943 25.9375 102.938 27.2676V27.8916C102.938 29.1982 103.178 30.2119 103.658 30.9326C104.139 31.6533 104.83 32.0137 105.732 32.0137C106.617 32.0137 107.297 31.668 107.771 30.9766C108.246 30.2793 108.486 29.2656 108.492 27.9355V27.3115ZM116.525 21.2031L119.812 30.4844L123.082 21.2031H126.545V34H123.899V30.502L124.163 24.4639L120.709 34H118.898L115.453 24.4727L115.717 30.502V34H113.08V21.2031H116.525ZM136.362 22.3457H136.521C137.522 22.3457 138.428 22.5684 139.236 23.0137C140.051 23.4531 140.684 24.0801 141.135 24.8945C141.586 25.709 141.812 26.6348 141.812 27.6719C141.812 29.207 141.319 30.4609 140.335 31.4336C139.356 32.4062 138.032 32.8926 136.362 32.8926V34.5273H133.822V32.8926H133.655C132.642 32.8926 131.728 32.6758 130.913 32.2422C130.099 31.8027 129.466 31.1875 129.015 30.3965C128.569 29.6055 128.347 28.7031 128.347 27.6895C128.347 26.6641 128.569 25.7471 129.015 24.9385C129.46 24.1299 130.084 23.5 130.887 23.0488C131.689 22.5918 132.586 22.3574 133.576 22.3457H133.822V20.6758H136.362V22.3457ZM133.655 24.5342C132.782 24.5342 132.094 24.8096 131.59 25.3604C131.092 25.9111 130.843 26.6875 130.843 27.6895C130.843 28.627 131.092 29.3652 131.59 29.9043C132.088 30.4375 132.788 30.7041 133.69 30.7041H133.822V24.5342H133.655ZM136.362 24.5342V30.7041H136.538C137.399 30.7041 138.076 30.4346 138.568 29.8955C139.066 29.3506 139.315 28.6094 139.315 27.6719C139.315 26.6934 139.072 25.9258 138.586 25.3691C138.1 24.8125 137.402 24.5342 136.494 24.5342H136.362ZM154.055 27.8916C154.055 29.1514 153.832 30.2559 153.387 31.2051C152.941 32.1543 152.303 32.8867 151.471 33.4023C150.645 33.918 149.695 34.1758 148.623 34.1758C147.562 34.1758 146.616 33.9209 145.784 33.4111C144.952 32.9014 144.308 32.1748 143.851 31.2314C143.394 30.2822 143.162 29.1924 143.156 27.9619V27.3291C143.156 26.0693 143.382 24.9619 143.833 24.0068C144.29 23.0459 144.932 22.3105 145.758 21.8008C146.59 21.2852 147.539 21.0273 148.605 21.0273C149.672 21.0273 150.618 21.2852 151.444 21.8008C152.276 22.3105 152.918 23.0459 153.369 24.0068C153.826 24.9619 154.055 26.0664 154.055 27.3203V27.8916ZM151.383 27.3115C151.383 25.9697 151.143 24.9502 150.662 24.2529C150.182 23.5557 149.496 23.207 148.605 23.207C147.721 23.207 147.038 23.5527 146.558 24.2441C146.077 24.9297 145.834 25.9375 145.828 27.2676V27.8916C145.828 29.1982 146.068 30.2119 146.549 30.9326C147.029 31.6533 147.721 32.0137 148.623 32.0137C149.508 32.0137 150.188 31.668 150.662 30.9766C151.137 30.2793 151.377 29.2656 151.383 27.9355V27.3115ZM158.607 29.4912V34H155.971V21.2031H160.963C161.924 21.2031 162.768 21.3789 163.494 21.7305C164.227 22.082 164.789 22.583 165.182 23.2334C165.574 23.8779 165.771 24.6133 165.771 25.4395C165.771 26.6934 165.34 27.6836 164.479 28.4102C163.623 29.1309 162.437 29.4912 160.919 29.4912H158.607ZM158.607 27.3555H160.963C161.66 27.3555 162.19 27.1914 162.554 26.8633C162.923 26.5352 163.107 26.0664 163.107 25.457C163.107 24.8301 162.923 24.3232 162.554 23.9365C162.185 23.5498 161.675 23.3506 161.024 23.3389H158.607V27.3555ZM177.223 23.3389H173.303V34H170.666V23.3389H166.799V21.2031H177.223V23.3389ZM186.434 28.4541H181.371V31.8818H187.312V34H178.734V21.2031H187.295V23.3389H181.371V26.3887H186.434V28.4541ZM191.276 30.0713H189.167L188.868 21.2031H191.575L191.276 30.0713ZM190.222 31.46C190.649 31.46 190.992 31.5859 191.25 31.8379C191.514 32.0898 191.646 32.4121 191.646 32.8047C191.646 33.1914 191.514 33.5107 191.25 33.7627C190.992 34.0146 190.649 34.1406 190.222 34.1406C189.8 34.1406 189.457 34.0146 189.193 33.7627C188.936 33.5107 188.807 33.1914 188.807 32.8047C188.807 32.418 188.936 32.0986 189.193 31.8467C189.457 31.5889 189.8 31.46 190.222 31.46Z" fill="#1285C4"/>
</svg>
