<svg width="20" height="19" viewBox="0 0 20 19" fill="none" xmlns="http://www.w3.org/2000/svg">
<path d="M1.54724 8.2331H16.8589L10.5595 1.97549C10.0997 1.51873 10.0997 0.787911 10.5595 0.34257C11.0193 -0.11419 11.755 -0.11419 12.2033 0.34257L19.0775 7.17113C20.3075 8.39296 20.3075 10.3685 19.0775 11.5789L12.2033 18.4074C11.9734 18.6358 11.6746 18.75 11.3757 18.75C11.0768 18.75 10.7779 18.6358 10.548 18.4074C10.0882 17.9507 10.0882 17.2199 10.548 16.7745L16.8589 10.5169H1.54724C0.915003 10.5169 0.397717 10.003 0.397717 9.375C0.397717 8.74695 0.915003 8.2331 1.54724 8.2331Z" fill="white"/>
</svg>
