<svg width="20" height="19" viewBox="0 0 20 19" fill="none" xmlns="http://www.w3.org/2000/svg">
<path d="M18.4528 8.2331H3.14108L9.44048 1.97549C9.90029 1.51873 9.90029 0.787911 9.44048 0.34257C8.98067 -0.11419 8.24497 -0.11419 7.79666 0.34257L0.922494 7.17113C-0.307498 8.39296 -0.307498 10.3685 0.922494 11.5789L7.79666 18.4074C8.02656 18.6358 8.32544 18.75 8.62432 18.75C8.92319 18.75 9.22207 18.6358 9.45197 18.4074C9.91178 17.9507 9.91178 17.2199 9.45197 16.7745L3.14108 10.5169H18.4528C19.085 10.5169 19.6023 10.003 19.6023 9.375C19.6023 8.74695 19.085 8.2331 18.4528 8.2331Z" fill="white"/>
</svg>
