<svg width="21" height="20" viewBox="0 0 21 20" fill="none" xmlns="http://www.w3.org/2000/svg">
<path d="M15.0378 0.851014C15.0378 0.361653 15.442 -0.0426025 15.9314 -0.0426025C16.4208 -0.0426025 16.825 0.361653 16.825 0.851014V1.29782H17.8463C18.5271 1.29782 19.1442 1.57442 19.591 2.0425C20.0378 2.48931 20.3144 3.10633 20.3144 3.78718V17.5531C20.3144 18.2553 20.0378 18.8723 19.591 19.3191C19.1442 19.7659 18.5271 20.0425 17.8463 20.0425H2.97394C2.29309 20.0425 1.67607 19.7659 1.22926 19.3191C0.782455 18.8723 0.505859 18.2553 0.505859 17.5531V3.78718C0.505859 3.10633 0.782455 2.48931 1.22926 2.0425C1.67607 1.57442 2.29309 1.29782 2.97394 1.29782H3.99522V0.851014C3.99522 0.361653 4.39948 -0.0426025 4.88884 -0.0426025C5.39948 -0.0426025 5.80373 0.361653 5.80373 0.851014V1.29782H15.0378V0.851014ZM4.6548 7.78718C4.14416 7.78718 3.7399 7.38293 3.7399 6.89357C3.7399 6.38293 4.14416 5.99995 4.6548 5.99995H16.5484C17.0378 5.99995 17.442 6.38293 17.442 6.89357C17.442 7.38293 17.0378 7.78718 16.5484 7.78718H4.6548ZM6.95267 9.23399H7.93139C8.1016 9.23399 8.25054 9.38293 8.25054 9.55314V10.5319C8.25054 10.7021 8.1016 10.851 7.93139 10.851H6.95267C6.78245 10.851 6.63352 10.7021 6.63352 10.5319V9.55314C6.63352 9.38293 6.78245 9.23399 6.95267 9.23399ZM3.88884 14.9999H4.86756C5.03777 14.9999 5.18671 15.1489 5.18671 15.3191V16.2765C5.18671 16.468 5.03777 16.617 4.86756 16.617H3.88884C3.71863 16.617 3.56969 16.468 3.56969 16.2765V15.3191C3.56969 15.1489 3.71863 14.9999 3.88884 14.9999ZM10.0378 14.9999H10.9952C11.1867 14.9999 11.3356 15.1489 11.3356 15.3191V16.2765C11.3356 16.468 11.1867 16.617 10.9952 16.617H10.0378C9.86756 16.617 9.71863 16.468 9.71863 16.2765V15.3191C9.71863 15.1489 9.86756 14.9999 10.0378 14.9999ZM6.97394 14.9999H7.93139C8.12288 14.9999 8.27182 15.1489 8.27182 15.3191V16.2765C8.27182 16.468 8.12288 16.617 7.93139 16.617H6.97394C6.80373 16.617 6.6548 16.468 6.6548 16.2765V15.3191C6.6548 15.1489 6.80373 14.9999 6.97394 14.9999ZM3.88884 12.0851H4.86756C5.03777 12.0851 5.18671 12.234 5.18671 12.4255V13.3829C5.18671 13.5531 5.03777 13.7021 4.86756 13.7021H3.88884C3.71863 13.7021 3.56969 13.5531 3.56969 13.3829V12.4255C3.56969 12.234 3.71863 12.0851 3.88884 12.0851ZM15.9952 12.0851H16.9527C17.1229 12.0851 17.2718 12.234 17.2718 12.4255V13.3829C17.2718 13.5531 17.1229 13.7021 16.9527 13.7021H15.9952C15.8037 13.7021 15.6548 13.5531 15.6548 13.3829V12.4255C15.6548 12.234 15.8037 12.0851 15.9952 12.0851ZM12.9314 12.0851H13.8888C14.0591 12.0851 14.208 12.234 14.208 12.4255V13.3829C14.208 13.5531 14.0591 13.7021 13.8888 13.7021H12.9314C12.7399 13.7021 12.591 13.5531 12.591 13.3829V12.4255C12.591 12.234 12.7399 12.0851 12.9314 12.0851ZM10.0378 12.0851H10.9952C11.1867 12.0851 11.3356 12.234 11.3356 12.4255V13.3829C11.3356 13.5531 11.1867 13.7021 10.9952 13.7021H10.0378C9.86756 13.7021 9.71863 13.5531 9.71863 13.3829V12.4255C9.71863 12.234 9.86756 12.0851 10.0378 12.0851ZM6.97394 12.0851H7.93139C8.12288 12.0851 8.27182 12.234 8.27182 12.4255V13.3829C8.27182 13.5531 8.12288 13.7021 7.93139 13.7021H6.97394C6.80373 13.7021 6.6548 13.5531 6.6548 13.3829V12.4255C6.6548 12.234 6.80373 12.0851 6.97394 12.0851ZM15.9739 9.23399H16.9314C17.1016 9.23399 17.2505 9.38293 17.2505 9.55314V10.5319C17.2505 10.7021 17.1016 10.851 16.9314 10.851H15.9739C15.7825 10.851 15.6335 10.7021 15.6335 10.5319V9.55314C15.6335 9.38293 15.7825 9.23399 15.9739 9.23399ZM12.9101 9.23399H13.8676C14.0378 9.23399 14.1867 9.38293 14.1867 9.55314V10.5319C14.1867 10.7021 14.0378 10.851 13.8676 10.851H12.9101C12.7186 10.851 12.5697 10.7021 12.5697 10.5319V9.55314C12.5697 9.38293 12.7186 9.23399 12.9101 9.23399ZM10.0165 9.23399H10.9739C11.1654 9.23399 11.3144 9.38293 11.3144 9.55314V10.5319C11.3144 10.7021 11.1654 10.851 10.9739 10.851H10.0165C9.84628 10.851 9.69735 10.7021 9.69735 10.5319V9.55314C9.69735 9.38293 9.84628 9.23399 10.0165 9.23399ZM16.825 3.10633V3.55314C16.825 4.06378 16.4208 4.46804 15.9314 4.46804C15.442 4.46804 15.0378 4.06378 15.0378 3.55314V3.10633H5.80373V3.55314C5.80373 4.06378 5.39948 4.46804 4.88884 4.46804C4.39948 4.46804 3.99522 4.06378 3.99522 3.55314V3.10633H2.97394C2.80373 3.10633 2.63352 3.19144 2.50586 3.29782C2.3782 3.42548 2.31437 3.5957 2.31437 3.78718V17.5531C2.31437 17.7446 2.3782 17.9148 2.50586 18.0425C2.63352 18.1702 2.80373 18.234 2.97394 18.234H17.8463C18.0378 18.234 18.208 18.1702 18.3144 18.0425C18.442 17.9148 18.5271 17.7446 18.5271 17.5531V3.78718C18.5271 3.5957 18.442 3.42548 18.3144 3.29782C18.208 3.19144 18.0378 3.10633 17.8463 3.10633H16.825Z" fill="#8FC3DF"/>
</svg>
