<svg width="19" height="15" viewBox="0 0 19 15" fill="none" xmlns="http://www.w3.org/2000/svg">
<path d="M1.77146 0.00390625H17.0167C17.2494 0.00390625 17.482 0.0575869 17.6967 0.147055C17.9114 0.236522 18.1083 0.361777 18.2693 0.522819C18.4303 0.683861 18.5556 0.880689 18.6451 1.09541C18.7345 1.31013 18.7882 1.54275 18.7882 1.77537V13.2272C18.7882 13.4598 18.7345 13.6925 18.6451 13.9072C18.5556 14.1219 18.4303 14.3187 18.2693 14.4798C18.1083 14.6408 17.9114 14.784 17.6967 14.8734C17.482 14.945 17.2494 14.9987 17.0167 14.9987H1.77146C1.53884 14.9987 1.30623 14.945 1.09151 14.8734C0.876783 14.784 0.679954 14.6408 0.518912 14.4798C0.357871 14.3187 0.232616 14.1219 0.143148 13.9072C0.0536806 13.6925 0 13.4598 0 13.2272V1.77537C0 1.54275 0.0536806 1.31013 0.143148 1.09541C0.232616 0.880689 0.357871 0.683861 0.518912 0.522819C0.679954 0.361777 0.876783 0.236522 1.09151 0.147055C1.30623 0.0575869 1.53884 0.00390625 1.77146 0.00390625ZM3.25662 1.82905L9.3941 7.71602L15.6389 1.82905H3.25662ZM16.9631 3.0637L10.0204 9.63063C9.84144 9.79167 9.62672 9.88114 9.3941 9.88114C9.16149 9.88114 8.94677 9.79167 8.76783 9.63063L1.82514 2.95634V13.1914H16.9631V3.0637Z" fill="white"/>
</svg>
