<svg width="16" height="18" viewBox="0 0 16 18" fill="none" xmlns="http://www.w3.org/2000/svg">
<path fill-rule="evenodd" clip-rule="evenodd" d="M5.77919 10.7907C7.72481 13.3975 9.33043 14.0208 10.6527 12.6041C11.7483 11.6785 13.0895 11.9052 14.6195 13.2653C16.1685 14.7953 15.9985 16.0798 14.1095 17.1187C10.2938 19.1777 6.85589 17.591 3.19131 12.7552C-0.454376 7.93839 -1.09662 4.17937 1.88793 1.06259C3.3991 -0.50525 4.68359 -0.335244 5.74141 1.55371C6.64811 3.40489 6.51588 4.74605 5.34473 5.5772C3.64466 6.46501 3.81467 8.18396 5.77919 10.7907ZM9.25487 3.08377C8.95264 2.98932 8.76374 2.68709 8.8393 2.36597C8.93375 2.06373 9.23598 1.89373 9.53821 1.96929C13.5428 3.00821 15.4318 5.50164 15.2051 9.41178C15.1862 9.71401 14.9217 9.95958 14.6006 9.94069C14.2984 9.9218 14.0528 9.65734 14.0717 9.33622C14.2417 6.04943 12.6361 3.97158 9.25487 3.08377ZM9.36821 5.87943C9.06597 5.80387 8.85819 5.50164 8.93375 5.18051C9.00931 4.87828 9.31154 4.68938 9.61377 4.74605C10.8038 5.01051 11.6916 5.52053 12.2394 6.25722C12.825 6.99391 13.0517 7.95728 12.9383 9.12844C12.9194 9.44956 12.6361 9.67623 12.315 9.63846C11.9939 9.61957 11.7672 9.33622 11.805 9.0151C11.8805 8.14618 11.7294 7.46615 11.3327 6.95613C10.936 6.42723 10.2749 6.06832 9.36821 5.87943Z" fill="white"/>
</svg>
