<svg width="220" height="200" viewBox="0 0 220 200" fill="none" xmlns="http://www.w3.org/2000/svg">
<g clip-path="url(#clip0)">
<path fill-rule="evenodd" clip-rule="evenodd" d="M34.9262 45.4382H137.661C139.387 45.4382 141.042 46.1239 142.263 47.3444C143.483 48.565 144.169 50.2204 144.169 51.9465C144.169 53.6725 144.855 55.3279 146.075 56.5485C147.296 57.769 148.951 58.4547 150.677 58.4547H212.011C213.737 58.4547 215.393 59.1404 216.613 60.3609C217.834 61.5814 218.519 63.2368 218.519 64.9629V193.458C218.519 195.184 217.834 196.839 216.613 198.06C215.393 199.28 213.737 199.966 212.011 199.966H34.9262C33.2001 199.966 31.5447 199.28 30.3242 198.06C29.1037 196.839 28.418 195.184 28.418 193.458V51.9635C28.4157 51.1074 28.5824 50.2593 28.9085 49.4677C29.2346 48.6761 29.7136 47.9566 30.3182 47.3505C30.9227 46.7443 31.641 46.2634 32.4317 45.9353C33.2224 45.6071 34.0701 45.4382 34.9262 45.4382Z" fill="#FF9F4A"/>
<path fill-rule="evenodd" clip-rule="evenodd" d="M57.6041 0H144.17L189.626 45.6087V111.73H50.3633V7.24082C50.3633 5.32044 51.1261 3.47871 52.4841 2.12079C53.842 0.762871 55.6837 0 57.6041 0Z" fill="#8FC3DF"/>
<path fill-rule="evenodd" clip-rule="evenodd" d="M189.623 45.6087L144.168 0V38.3678C144.168 40.2882 144.931 42.13 146.289 43.4879C147.647 44.8458 149.488 45.6087 151.409 45.6087H189.623Z" fill="#1285C4"/>
<path fill-rule="evenodd" clip-rule="evenodd" d="M60.8061 82.4943L7.44554 81.4721C6.31959 81.4451 5.2028 81.6805 4.18356 82.1597C3.16431 82.6388 2.27057 83.3487 1.57305 84.233C0.875541 85.1172 0.393398 86.1517 0.164775 87.2546C-0.0638473 88.3574 -0.0326744 89.4983 0.255827 90.587L28.2991 194.514C28.722 196.059 29.642 197.422 30.9169 198.392C32.1918 199.362 33.7506 199.885 35.3525 199.881H211.841C212.964 199.887 214.072 199.634 215.08 199.139C216.088 198.645 216.967 197.924 217.649 197.032C218.331 196.141 218.797 195.103 219.01 194.001C219.223 192.899 219.178 191.762 218.878 190.681L193.748 101.746C193.31 100.22 192.386 98.8781 191.116 97.9248C189.846 96.9716 188.299 96.4589 186.711 96.4648H75.9693C74.4743 96.4542 73.0188 95.9843 71.7998 95.1188C70.5808 94.2533 69.6573 93.0341 69.1544 91.6262L67.6381 87.3499C67.1369 85.9362 66.212 84.7113 64.9894 83.8424C63.7668 82.9735 62.306 82.5027 60.8061 82.4943Z" fill="#FFEFC5"/>
<path fill-rule="evenodd" clip-rule="evenodd" d="M47.3964 153.097H86.1561C87.7627 153.1 89.3227 153.637 90.5904 154.624C91.858 155.611 92.7615 156.992 93.1584 158.548L96.9918 173.047C97.2763 174.119 97.3106 175.243 97.0921 176.331C96.8735 177.418 96.4079 178.441 95.7312 179.321C95.0545 180.2 94.1848 180.912 93.1893 181.401C92.1937 181.891 91.0989 182.146 89.9895 182.145H51.2127C49.6129 182.145 48.0582 181.615 46.7914 180.638C45.5245 179.661 44.617 178.292 44.2104 176.744L40.3771 162.245C40.0828 161.168 40.0416 160.038 40.2567 158.942C40.4719 157.847 40.9374 156.816 41.6171 155.93C42.2968 155.044 43.1721 154.327 44.1746 153.836C45.1772 153.344 46.2799 153.091 47.3964 153.097Z" fill="white"/>
<path fill-rule="evenodd" clip-rule="evenodd" d="M9.23405 88.2869H57.3472C57.9173 88.2861 58.4727 88.4676 58.9324 88.8047C59.3921 89.1418 59.7321 89.617 59.9028 90.161L60.8228 93.1084C60.9357 93.505 60.9554 93.9224 60.8804 94.3279C60.8053 94.7334 60.6375 95.116 60.3901 95.446C60.1427 95.7759 59.8223 96.0441 59.454 96.2297C59.0858 96.4153 58.6796 96.5132 58.2672 96.5158H10.1541C9.58397 96.5166 9.02857 96.3351 8.56885 95.998C8.10913 95.6609 7.76914 95.1857 7.59848 94.6418L6.67847 91.6943C6.56551 91.2977 6.54579 90.8803 6.62085 90.4748C6.69591 90.0693 6.86371 89.6867 7.11114 89.3568C7.35857 89.0268 7.67894 88.7586 8.04721 88.573C8.41548 88.3874 8.82167 88.2895 9.23405 88.2869Z" fill="white"/>
<path d="M127.558 16.5772H62.8162C62.4658 16.5387 62.1418 16.3723 61.9065 16.1098C61.6712 15.8473 61.541 15.5071 61.541 15.1545C61.541 14.802 61.6712 14.4618 61.9065 14.1993C62.1418 13.9368 62.4658 13.7703 62.8162 13.7319H127.558C127.908 13.7703 128.232 13.9368 128.467 14.1993C128.703 14.4618 128.833 14.802 128.833 15.1545C128.833 15.5071 128.703 15.8473 128.467 16.1098C128.232 16.3723 127.908 16.5387 127.558 16.5772Z" fill="white"/>
<path d="M127.848 24.8061H63.1066C62.9067 24.828 62.7044 24.8076 62.513 24.7461C62.3215 24.6846 62.1451 24.5834 61.9954 24.4492C61.8457 24.315 61.7259 24.1507 61.6439 23.9671C61.5619 23.7834 61.5195 23.5846 61.5195 23.3835C61.5195 23.1824 61.5619 22.9836 61.6439 22.8C61.7259 22.6164 61.8457 22.4521 61.9954 22.3179C62.1451 22.1836 62.3215 22.0825 62.513 22.021C62.7044 21.9595 62.9067 21.939 63.1066 21.9609H127.848C128.048 21.939 128.25 21.9595 128.442 22.021C128.633 22.0825 128.809 22.1836 128.959 22.3179C129.109 22.4521 129.229 22.6164 129.311 22.8C129.393 22.9836 129.435 23.1824 129.435 23.3835C129.435 23.5846 129.393 23.7834 129.311 23.9671C129.229 24.1507 129.109 24.315 128.959 24.4492C128.809 24.5834 128.633 24.6846 128.442 24.7461C128.25 24.8076 128.048 24.828 127.848 24.8061Z" fill="white"/>
<path d="M128.136 33.0522H63.3944C63.0439 33.0138 62.7199 32.8474 62.4846 32.5849C62.2493 32.3224 62.1191 31.9822 62.1191 31.6296C62.1191 31.2771 62.2493 30.9369 62.4846 30.6744C62.7199 30.4119 63.0439 30.2454 63.3944 30.207H128.136C128.486 30.2454 128.81 30.4119 129.046 30.6744C129.281 30.9369 129.411 31.2771 129.411 31.6296C129.411 31.9822 129.281 32.3224 129.046 32.5849C128.81 32.8474 128.486 33.0138 128.136 33.0522Z" fill="white"/>
<path d="M128.409 41.5708H63.6678C63.3173 41.5324 62.9934 41.366 62.758 41.1034C62.5227 40.8409 62.3926 40.5008 62.3926 40.1482C62.3926 39.7956 62.5227 39.4555 62.758 39.1929C62.9934 38.9304 63.3173 38.764 63.6678 38.7256H128.409C128.76 38.764 129.084 38.9304 129.319 39.1929C129.554 39.4555 129.684 39.7956 129.684 40.1482C129.684 40.5008 129.554 40.8409 129.319 41.1034C129.084 41.366 128.76 41.5324 128.409 41.5708Z" fill="white"/>
<path d="M183.303 155.993H135.599C135.02 155.993 134.543 155.363 134.543 154.562C134.543 153.761 135.02 153.131 135.599 153.131H183.303C183.883 153.131 184.36 153.761 184.36 154.562C184.36 155.363 183.883 155.993 183.303 155.993Z" fill="#FF9F4A"/>
<path d="M189.847 163.813H142.142C141.563 163.813 141.086 163.183 141.086 162.382C141.086 161.581 141.563 160.951 142.142 160.951H189.847C190.426 160.951 190.903 161.581 190.903 162.382C190.903 163.183 190.426 163.813 189.847 163.813Z" fill="#FF9F4A"/>
<path d="M194.667 171.616H146.963C146.383 171.616 145.906 170.986 145.906 170.185C145.906 169.384 146.383 168.754 146.963 168.754H194.667C195.246 168.754 195.723 169.384 195.723 170.185C195.723 170.986 195.246 171.616 194.667 171.616Z" fill="#FF9F4A"/>
</g>
<defs>
<clipPath id="clip0">
<rect width="219.133" height="200" fill="white"/>
</clipPath>
</defs>
</svg>
