<svg width="26" height="20" viewBox="0 0 26 20" fill="none" xmlns="http://www.w3.org/2000/svg">
<path d="M2.36195 0H22.689C22.9992 0 23.3093 0.0715741 23.5956 0.190864C23.8819 0.310155 24.1443 0.477161 24.3591 0.691883C24.5738 0.906606 24.7408 1.16904 24.8601 1.45534C24.9794 1.74164 25.0509 2.05179 25.0509 2.36195V17.6311C25.0509 17.9412 24.9794 18.2514 24.8601 18.5377C24.7408 18.824 24.5738 19.0864 24.3591 19.3012C24.1443 19.5159 23.8819 19.7067 23.5956 19.826C23.3093 19.9215 22.9992 19.993 22.689 19.993H2.36195C2.05179 19.993 1.74164 19.9215 1.45534 19.826C1.16904 19.7067 0.906606 19.5159 0.691883 19.3012C0.477161 19.0864 0.310155 18.824 0.190864 18.5377C0.0715741 18.2514 0 17.9412 0 17.6311V2.36195C0 2.05179 0.0715741 1.74164 0.190864 1.45534C0.310155 1.16904 0.477161 0.906606 0.691883 0.691883C0.906606 0.477161 1.16904 0.310155 1.45534 0.190864C1.74164 0.0715741 2.05179 0 2.36195 0ZM4.34216 2.43352L12.5255 10.2828L20.8519 2.43352H4.34216ZM22.6174 4.07973L13.3605 12.8356C13.1219 13.0504 12.8356 13.1696 12.5255 13.1696C12.2153 13.1696 11.929 13.0504 11.6904 12.8356L2.43352 3.93658V17.5834H22.6174V4.07973Z" fill="#8FC3DF"/>
</svg>
