<svg width="75" height="100" viewBox="0 0 75 100" fill="none" xmlns="http://www.w3.org/2000/svg">
<path d="M63.8809 0H10.8926V95.9912H63.8809V0Z" fill="#FFEFC5"/>
<path d="M63.8741 0H32.0957V95.9912H63.8741V0Z" fill="#F5CD54"/>
<path fill-rule="evenodd" clip-rule="evenodd" d="M12.9334 0H61.8401C62.9334 0 63.8809 0.947522 63.8809 2.04082V4.08163H10.8926V2.04082C10.8926 0.947522 11.7672 0 12.9334 0Z" fill="#C5C6BC"/>
<path d="M43.7612 14.1401H31.8808C30.8744 14.1401 30.0586 14.9886 30.0586 16.0352V45.627C30.0586 46.6736 30.8744 47.5221 31.8808 47.5221H43.7612C44.7676 47.5221 45.5834 46.6736 45.5834 45.627V16.0352C45.5834 14.9886 44.7676 14.1401 43.7612 14.1401Z" fill="#3B3943"/>
<path d="M39.6955 18.731H35.9606C35.4775 18.731 35.0859 19.5468 35.0859 20.5531V41.1331C35.0859 42.1394 35.4775 42.9552 35.9606 42.9552H39.6955C40.1786 42.9552 40.5702 42.1394 40.5702 41.1331V20.5531C40.5702 19.5468 40.1786 18.731 39.6955 18.731Z" fill="#D5E8F1"/>
<path d="M52.875 21.0634C54.6461 21.0634 56.082 19.6276 56.082 17.8564C56.082 16.0852 54.6461 14.6494 52.875 14.6494C51.1038 14.6494 49.668 16.0852 49.668 17.8564C49.668 19.6276 51.1038 21.0634 52.875 21.0634Z" fill="#FFE6A7"/>
<path d="M52.875 34.2568C54.6461 34.2568 56.082 32.8209 56.082 31.0498C56.082 29.2786 54.6461 27.8428 52.875 27.8428C51.1038 27.8428 49.668 29.2786 49.668 31.0498C49.668 32.8209 51.1038 34.2568 52.875 34.2568Z" fill="#FFE6A7"/>
<path d="M52.875 47.5214C54.6461 47.5214 56.082 46.0856 56.082 44.3144C56.082 42.5432 54.6461 41.1074 52.875 41.1074C51.1038 41.1074 49.668 42.5432 49.668 44.3144C49.668 46.0856 51.1038 47.5214 52.875 47.5214Z" fill="#FFE6A7"/>
<path d="M52.436 62.6094H23.7188C19.4116 62.6094 15.9199 66.101 15.9199 70.4082V83.6006C15.9199 87.9078 19.4116 91.3995 23.7188 91.3995H52.436C56.7431 91.3995 60.2348 87.9078 60.2348 83.6006V70.4082C60.2348 66.101 56.7431 62.6094 52.436 62.6094Z" fill="#3B3943"/>
<path d="M50.1038 66.2534H26.0513C22.4687 66.2534 19.5645 68.864 19.5645 72.0843V81.924C19.5645 85.1443 22.4687 87.7549 26.0513 87.7549H50.1038C53.6864 87.7549 56.5907 85.1443 56.5907 81.924V72.0843C56.5907 68.864 53.6864 66.2534 50.1038 66.2534Z" fill="#F5CD54"/>
<path fill-rule="evenodd" clip-rule="evenodd" d="M69.3454 4.08154H63.8789V95.9912H10.8906V4.08154H5.35124C2.3629 4.08154 -0.115234 6.55968 -0.115234 9.6209V94.4606C-0.115234 97.5218 2.3629 99.9999 5.35124 99.9999C26.7069 99.9999 48.0626 99.9999 69.3454 99.9999C72.4066 99.9999 74.8119 97.5218 74.8119 94.4606V9.6209C74.8119 6.55968 72.4066 4.08154 69.3454 4.08154Z" fill="#8FC3DF"/>
<path fill-rule="evenodd" clip-rule="evenodd" d="M69.3464 4.08154H63.8799V95.9912H31.8828V99.9999H69.3464C72.4076 99.9999 74.8128 97.5218 74.8128 94.4606V9.6209C74.8128 6.55968 72.4076 4.08154 69.3464 4.08154Z" fill="#81A0B0"/>
<path fill-rule="evenodd" clip-rule="evenodd" d="M31.8828 0H61.8391C62.9324 0 63.8799 0.947522 63.8799 2.04082V4.08163H31.8828V0Z" fill="#8F8684"/>
<path fill-rule="evenodd" clip-rule="evenodd" d="M32.0957 66.2534H50.7546C53.9616 66.2534 56.5855 68.8773 56.5855 72.0843V81.924C56.5855 85.131 53.9616 87.7549 50.7546 87.7549H32.0957V66.2534Z" fill="#FF9F4A"/>
<path d="M28.6836 81.3414C31.2196 81.3414 33.2755 79.2856 33.2755 76.7496C33.2755 74.2136 31.2196 72.1577 28.6836 72.1577C26.1476 72.1577 24.0918 74.2136 24.0918 76.7496C24.0918 79.2856 26.1476 81.3414 28.6836 81.3414Z" fill="#8FC3DF"/>
<path d="M28.6787 71.1377C30.2093 71.1377 31.667 71.7937 32.6874 72.8141C33.7078 73.8345 34.3638 75.2193 34.3638 76.7499C34.3638 78.3534 33.7078 79.7383 32.6874 80.7587C31.667 81.7791 30.2093 82.4351 28.6787 82.4351C27.148 82.4351 25.6903 81.7791 24.6699 80.7587C23.6495 79.7383 23.0664 78.3534 23.0664 76.7499C23.0664 75.2193 23.6495 73.8345 24.6699 72.8141C25.6903 71.7937 27.148 71.1377 28.6787 71.1377ZM31.1568 74.3447C30.5008 73.6887 29.6262 73.3243 28.6787 73.3243C27.7311 73.3243 26.8565 73.6887 26.2005 74.3447C25.6174 74.9278 25.1801 75.8024 25.1801 76.7499C25.1801 77.7703 25.6174 78.645 26.2005 79.2281C26.8565 79.884 27.7311 80.2485 28.6787 80.2485C29.6262 80.2485 30.5008 79.884 31.1568 79.2281C31.8128 78.645 32.1772 77.7703 32.1772 76.7499C32.1772 75.8024 31.8128 74.9278 31.1568 74.3447Z" fill="white"/>
<path d="M26.2729 72.7412L32.1038 78.9365L30.7918 80.1756L24.9609 73.9803L26.2729 72.7412Z" fill="white"/>
<path d="M46.8262 81.3414C49.3622 81.3414 51.418 79.2856 51.418 76.7496C51.418 74.2136 49.3622 72.1577 46.8262 72.1577C44.2902 72.1577 42.2344 74.2136 42.2344 76.7496C42.2344 79.2856 44.2902 81.3414 46.8262 81.3414Z" fill="#8FC3DF"/>
<path d="M46.8238 71.1377C48.3544 71.1377 49.7393 71.7937 50.7597 72.8141C51.7801 73.8345 52.436 75.2193 52.436 76.7499C52.436 78.3534 51.7801 79.7383 50.7597 80.7587C49.7393 81.7791 48.3544 82.4351 46.8238 82.4351C45.2203 82.4351 43.8355 81.7791 42.8151 80.7587C41.7946 79.7383 41.1387 78.3534 41.1387 76.7499C41.1387 75.2193 41.7946 73.8345 42.8151 72.8141C43.8355 71.7937 45.2203 71.1377 46.8238 71.1377ZM49.3019 74.3447C48.646 73.6887 47.7713 73.3243 46.8238 73.3243C45.8034 73.3243 44.9288 73.6887 44.3457 74.3447C43.6897 74.9278 43.3253 75.8024 43.3253 76.7499C43.3253 77.7703 43.6897 78.645 44.3457 79.2281C44.9288 79.884 45.8034 80.2485 46.8238 80.2485C47.7713 80.2485 48.646 79.884 49.3019 79.2281C49.885 78.645 50.3223 77.7703 50.3223 76.7499C50.3223 75.8024 49.885 74.9278 49.3019 74.3447Z" fill="white"/>
<path d="M44.4155 72.7412L50.1735 78.9365L48.8615 80.1756L43.1035 73.9803L44.4155 72.7412Z" fill="white"/>
</svg>
