<svg width="101" height="100" viewBox="0 0 101 100" fill="none" xmlns="http://www.w3.org/2000/svg">
<path fill-rule="evenodd" clip-rule="evenodd" d="M0.924366 -0.0595703H48.2159C48.642 -0.0595703 49.0071 0.305615 49.0071 0.79253V13.8175C49.0071 14.2435 48.642 14.6696 48.2159 14.6696H0.924366C0.437451 14.6696 0.0722656 14.2435 0.0722656 13.8175V0.79253C0.0722656 0.305615 0.437451 -0.0595703 0.924366 -0.0595703Z" fill="#FF9F4A"/>
<path fill-rule="evenodd" clip-rule="evenodd" d="M0.924366 17.105H48.2159C48.642 17.105 49.0071 17.4702 49.0071 17.9571V30.9212C49.0071 31.4081 48.642 31.7733 48.2159 31.7733H0.924366C0.437451 31.7733 0.0722656 31.4081 0.0722656 30.9212V17.9571C0.0722656 17.4702 0.437451 17.105 0.924366 17.105Z" fill="#FF9F4A"/>
<path fill-rule="evenodd" clip-rule="evenodd" d="M0.924366 34.2075H48.2159C48.642 34.2075 49.0071 34.6336 49.0071 35.0596V48.0846C49.0071 48.5106 48.642 48.9367 48.2159 48.9367H0.924366C0.437451 48.9367 0.0722656 48.5106 0.0722656 48.0846V35.0596C0.0722656 34.6336 0.437451 34.2075 0.924366 34.2075Z" fill="#FF9F4A"/>
<path fill-rule="evenodd" clip-rule="evenodd" d="M51.3223 48.0841V0.79253C51.3223 0.305615 51.6875 -0.0595703 52.1744 -0.0595703H65.1385C65.6254 -0.0595703 65.9906 0.305615 65.9906 0.79253V48.0841C65.9906 48.5101 65.6254 48.9362 65.1385 48.9362H52.1744C51.6875 48.9362 51.3223 48.5101 51.3223 48.0841Z" fill="#FF9F4A"/>
<path fill-rule="evenodd" clip-rule="evenodd" d="M68.4219 48.0841V0.79253C68.4219 0.36648 68.8479 -0.0595703 69.274 -0.0595703H82.2989C82.7858 -0.0595703 83.151 0.36648 83.151 0.79253V48.0841C83.151 48.5101 82.7858 48.9362 82.2989 48.9362H69.274C68.8479 48.9362 68.4219 48.5101 68.4219 48.0841Z" fill="#FF9F4A"/>
<path fill-rule="evenodd" clip-rule="evenodd" d="M85.5918 48.0841V0.79253C85.5918 0.36648 85.957 -0.0595703 86.4439 -0.0595703H99.4689C99.8949 -0.0595703 100.26 0.36648 100.26 0.79253V48.0841C100.26 48.5101 99.8949 48.9362 99.4689 48.9362H86.4439C85.957 48.9362 85.5918 48.5101 85.5918 48.0841Z" fill="#FF9F4A"/>
<path fill-rule="evenodd" clip-rule="evenodd" d="M99.5847 51.0659H52.2932C51.8671 51.0659 51.502 51.4311 51.502 51.918V64.8821C51.502 65.369 51.8671 65.7342 52.2932 65.7342H99.5847C100.072 65.7342 100.437 65.369 100.437 64.8821V51.918C100.437 51.4311 100.072 51.0659 99.5847 51.0659Z" fill="#FFCC9F"/>
<path fill-rule="evenodd" clip-rule="evenodd" d="M99.5847 68.1685L52.2932 68.2293C51.8671 68.2293 51.502 68.5945 51.502 69.0206V82.0455C51.502 82.5324 51.8671 82.8976 52.2932 82.8976H99.5847C100.072 82.8976 100.437 82.5324 100.437 82.0455V69.0206C100.437 68.5945 100.072 68.1685 99.5847 68.1685Z" fill="#FFCC9F"/>
<path fill-rule="evenodd" clip-rule="evenodd" d="M99.5847 85.333H52.2932C51.8671 85.333 51.502 85.6982 51.502 86.1851V99.2101C51.502 99.6361 51.8671 100.001 52.2932 100.001H99.5847C100.072 100.001 100.437 99.6361 100.437 99.2101V86.1851C100.437 85.6982 100.072 85.333 99.5847 85.333Z" fill="#FFCC9F"/>
<path fill-rule="evenodd" clip-rule="evenodd" d="M49.1898 99.1487V51.918C49.1898 51.4311 48.8246 51.0659 48.3377 51.0659H35.3736C34.8867 51.0659 34.5215 51.4311 34.5215 51.918V99.1487C34.5215 99.6356 34.8867 100.001 35.3736 100.001H48.3377C48.8246 100.001 49.1898 99.6356 49.1898 99.1487Z" fill="#FF9F4A"/>
<path fill-rule="evenodd" clip-rule="evenodd" d="M32.0807 99.1487L32.0199 51.918C32.0199 51.4311 31.6547 51.0659 31.2286 51.0659H18.2037C17.7167 51.0659 17.3516 51.4311 17.3516 51.918V99.1487C17.3516 99.6356 17.7167 100.001 18.2037 100.001H31.2286C31.6547 100.001 32.0807 99.6356 32.0807 99.1487Z" fill="#FF9F4A"/>
<path fill-rule="evenodd" clip-rule="evenodd" d="M14.9202 99.1487V51.918C14.9202 51.4311 14.5551 51.0659 14.0681 51.0659H1.04319C0.617139 51.0659 0.251953 51.4311 0.251953 51.918V99.1487C0.251953 99.6356 0.617139 100.001 1.04319 100.001H14.0681C14.5551 100.001 14.9202 99.6356 14.9202 99.1487Z" fill="#FF9F4A"/>
</svg>
