<svg width="113" height="112" viewBox="0 0 113 112" fill="none" xmlns="http://www.w3.org/2000/svg">
<path fill-rule="evenodd" clip-rule="evenodd" d="M20.7248 62.0321L62.7716 19.9853C64.5158 18.2411 67.3362 18.2411 69.0804 19.9853C70.8247 21.7295 70.8246 24.5499 69.0804 26.2942L67.0022 28.3724L81.624 42.9941C89.6771 51.0472 89.6399 64.2216 81.624 72.2376L80.1766 73.6849L88.4895 81.9978C90.0853 83.5936 90.0853 86.1914 88.5266 87.75C86.9308 89.3458 84.3331 89.3458 82.7373 87.75L74.4244 79.4372L73.0142 80.8474C64.9611 88.9005 51.8238 88.9005 43.7707 80.8474L29.149 66.2256L27.0336 68.341C25.2894 70.0852 22.469 70.0852 20.7248 68.341C18.9805 66.5967 18.9805 63.7763 20.7248 62.0321Z" fill="#FF9F4A"/>
<path d="M67.0092 28.3668L29.1504 66.2256L32.4112 69.4864L70.27 31.6276L67.0092 28.3668Z" fill="#C05048"/>
<path fill-rule="evenodd" clip-rule="evenodd" d="M13.1564 36.3504C14.9377 34.5691 17.8695 34.532 19.6508 36.3133L33.0479 49.7104L26.5535 56.2048L13.1564 42.8078C11.3751 41.0264 11.3751 38.1318 13.1564 36.3504Z" fill="#FFEFC5"/>
<path fill-rule="evenodd" clip-rule="evenodd" d="M37.0568 12.2279C38.8381 10.4466 41.7328 10.4466 43.5141 12.2279L56.9112 25.625L50.4539 32.0823L37.0568 18.6852C35.2755 16.9039 35.2755 14.0092 37.0568 12.2279Z" fill="#FFEFC5"/>
</svg>
