<svg width="114" height="110" viewBox="0 0 114 110" fill="none" xmlns="http://www.w3.org/2000/svg">
<path d="M107.848 16.9009H76.1879C72.7952 16.9009 70.0449 19.6512 70.0449 23.0438V54.7037C70.0449 58.0964 72.7952 60.8467 76.1879 60.8467H107.848C111.24 60.8467 113.991 58.0964 113.991 54.7037V23.0438C113.991 19.6512 111.24 16.9009 107.848 16.9009Z" fill="#81A0B0"/>
<path d="M107.848 66.1636H76.1879C72.7952 66.1636 70.0449 68.9139 70.0449 72.3065V103.966C70.0449 107.359 72.7952 110.109 76.1879 110.109H107.848C111.24 110.109 113.991 107.359 113.991 103.966V72.3065C113.991 68.9139 111.24 66.1636 107.848 66.1636Z" fill="#81A0B0"/>
<path d="M57.6447 66.1636H25.9848C22.5921 66.1636 19.8418 68.9139 19.8418 72.3065V103.966C19.8418 107.359 22.5921 110.109 25.9848 110.109H57.6447C61.0373 110.109 63.7876 107.359 63.7876 103.966V72.3065C63.7876 68.9139 61.0373 66.1636 57.6447 66.1636Z" fill="#E0EBF1"/>
<path d="M65.4434 60.0206C65.4434 59.1937 66.1522 58.603 66.9791 58.603C67.6879 58.603 68.3968 59.1937 68.3968 60.0206V62.2652H70.6413C71.3501 62.2652 72.0589 62.8558 72.0589 63.6828C72.0589 64.5097 71.3501 65.1004 70.6413 65.1004H68.3968V67.3449C68.3968 68.1719 67.6879 68.7625 66.9791 68.7625C66.1522 68.7625 65.4434 68.1719 65.4434 67.3449V65.1004H63.317C62.4901 65.1004 61.7812 64.5097 61.7812 63.6828C61.7812 62.8558 62.4901 62.2652 63.317 62.2652H65.4434V60.0206Z" fill="#292F5D"/>
<path d="M37.8029 -0.109375H6.14297C2.7503 -0.109375 0 2.64092 0 6.03359V37.6935C0 41.0862 2.7503 43.8365 6.14297 43.8365H37.8029C41.1955 43.8365 43.9458 41.0862 43.9458 37.6935V6.03359C43.9458 2.64092 41.1955 -0.109375 37.8029 -0.109375Z" fill="#E0EBF1"/>
<path fill-rule="evenodd" clip-rule="evenodd" d="M46.3027 66.1646H57.6436C61.0695 66.1646 63.7866 68.8816 63.7866 72.3075V104.086C63.7866 107.393 61.0695 110.11 57.6436 110.11H46.3027V66.1646Z" fill="#81A0B0"/>
</svg>
