<svg width="118" height="100" viewBox="0 0 118 100" fill="none" xmlns="http://www.w3.org/2000/svg">
<path d="M10.8193 36.0058C16.7849 36.0058 21.621 27.9456 21.621 18.0029C21.621 8.06016 16.7849 0 10.8193 0C4.85368 0 0.0175781 8.06016 0.0175781 18.0029C0.0175781 27.9456 4.85368 36.0058 10.8193 36.0058Z" fill="#81A0B0"/>
<path d="M10.8193 27.6521C12.8079 27.6521 14.4199 23.3319 14.4199 18.0026C14.4199 12.6733 12.8079 8.35303 10.8193 8.35303C8.83078 8.35303 7.21875 12.6733 7.21875 18.0026C7.21875 23.3319 8.83078 27.6521 10.8193 27.6521Z" fill="#F5CD54"/>
<path fill-rule="evenodd" clip-rule="evenodd" d="M10.8203 36.0058H70.3018C76.2548 36.0058 81.1036 27.9405 81.1036 18.0029C81.1036 8.06529 76.2548 0 70.3018 0H10.8203C16.7733 0 21.622 8.06529 21.622 18.0029C21.622 27.9405 16.7733 36.0058 10.8203 36.0058Z" fill="#F5CD54"/>
<path fill-rule="evenodd" clip-rule="evenodd" d="M72.0291 99.9516V82.6208V35.7653L10.8193 36.0053C4.09823 34.8531 0.497655 28.8522 0.0175781 18.0024V84.5891C0.0175781 92.9904 5.05838 99.9516 11.2994 99.9516H72.0291Z" fill="#8FC3DF"/>
<path fill-rule="evenodd" clip-rule="evenodd" d="M11.2988 99.9522C17.5398 99.9522 22.6286 92.991 22.6286 84.3497C22.6286 83.6776 22.5806 83.0535 22.5326 82.3813H98.4328C98.4808 83.0535 98.5288 83.6776 98.5288 84.3497C98.5288 92.991 93.44 99.9522 87.199 99.9522H11.2988Z" fill="#F5CD54"/>
<path fill-rule="evenodd" clip-rule="evenodd" d="M88.6836 37.1579H96.2208V21.2194C96.2208 19.155 97.9491 17.4268 100.013 17.4268C102.126 17.4268 103.806 19.155 103.806 21.2194V37.1579H111.391C114.512 37.1579 117.056 39.7023 117.056 42.8228V48.5357H82.9707V42.8228C82.9707 39.7023 85.5151 37.1579 88.6836 37.1579Z" fill="#292F5D"/>
<path fill-rule="evenodd" clip-rule="evenodd" d="M82.9707 48.5356H117.056V65.1943C117.056 68.1228 114.704 70.4752 111.775 70.4752H88.2996C85.3711 70.4752 82.9707 68.1228 82.9707 65.1943V48.5356Z" fill="#8FC3DF"/>
<path d="M109.325 52.9521H109.277C107.924 52.9521 106.828 54.0483 106.828 55.4005V63.7539C106.828 65.1061 107.924 66.2023 109.277 66.2023H109.325C110.677 66.2023 111.773 65.1061 111.773 63.7539V55.4005C111.773 54.0483 110.677 52.9521 109.325 52.9521Z" fill="#292F5D"/>
</svg>
