<svg width="20" height="25" viewBox="0 0 20 25" fill="none" xmlns="http://www.w3.org/2000/svg">
<path d="M13.2285 0.00701904C14.2238 0.00701904 15.2192 0.144305 16.1802 0.384555C17.1755 0.590484 18.1022 0.968021 18.9945 1.4142C19.681 1.79174 19.9555 2.68409 19.6123 3.37052C19.4064 3.74806 19.0288 4.02263 18.6513 4.1256C16.7636 4.57178 15.1162 5.63574 13.9493 7.14589C12.8167 8.58739 12.1302 10.4064 12.1302 12.3971C12.1302 14.4564 12.8167 16.3097 14.0179 17.7855C15.2192 19.2614 16.9009 20.3253 18.8572 20.7372C19.6466 20.9088 20.1271 21.6982 19.9555 22.4876C19.8869 22.8995 19.6123 23.2427 19.2348 23.4486C18.3424 23.9291 17.3814 24.341 16.3174 24.6155C15.3221 24.8558 14.2582 24.9931 13.2285 24.9931C9.76204 24.9931 6.63879 23.5859 4.37357 21.3207C2.10835 19.0898 0.701172 15.9665 0.701172 12.5C0.701172 9.06789 2.10835 5.94464 4.37357 3.67942C6.63879 1.4142 9.76204 0.00701904 13.2285 0.00701904ZM14.2238 2.95867C13.8806 2.92435 13.5374 2.92435 13.2285 2.92435C10.5514 2.92435 8.18326 3.98831 6.43286 5.70439C4.68246 7.45478 3.6185 9.85729 3.6185 12.5C3.6185 15.1428 4.68246 17.5453 6.43286 19.2957C8.18326 21.0118 10.5514 22.0757 13.2285 22.0757C13.6404 22.0757 14.0522 22.0757 14.4298 22.0071C13.4344 21.355 12.5078 20.5313 11.7527 19.5703C10.1739 17.6139 9.2129 15.1428 9.2129 12.3971C9.2129 9.75432 10.1396 7.28317 11.6497 5.36117C12.3705 4.43449 13.2628 3.61078 14.2238 2.95867Z" fill="white"/>
</svg>
