<svg width="57" height="50" viewBox="0 0 57 50" fill="none" xmlns="http://www.w3.org/2000/svg">
<path d="M3.59307 0.504639H52.8594C53.7706 0.504639 54.5604 0.869125 55.1678 1.4766C55.7753 2.08408 56.2005 2.93455 56.2005 3.84576V15.8738C56.2005 16.785 55.7753 17.5747 55.1678 18.1822C54.5604 18.7897 53.7706 19.1542 52.8594 19.1542H3.59307C2.68186 19.1542 1.83139 18.7897 1.28466 18.1822H1.22392C0.616439 17.5747 0.251953 16.785 0.251953 15.8738V3.84576C0.251953 2.93455 0.616439 2.08408 1.22392 1.4766H1.28466C1.83139 0.869125 2.68186 0.504639 3.59307 0.504639ZM28.7426 29.1775C30.6865 29.1775 32.509 29.9673 33.7847 31.243C35.0604 32.5187 35.8501 34.2803 35.8501 36.285C35.8501 38.2289 35.0604 39.9906 33.7847 41.2663C32.509 42.542 30.6865 43.3317 28.7426 43.3317C26.7987 43.3317 25.037 42.542 23.7613 41.2663C22.4856 39.9906 21.6959 38.2289 21.6959 36.285C21.6959 34.2803 22.4856 32.5187 23.7613 31.243C25.037 29.9673 26.7987 29.1775 28.7426 29.1775ZM8.93887 21.1588H48.5463C49.4576 21.1588 50.2473 21.9486 50.2473 22.8598V27.5981C50.2473 33.4906 47.8174 38.8364 43.9295 42.785C40.0417 46.6729 34.6351 49.1028 28.7426 49.1028C22.8501 49.1028 17.4435 46.6729 13.5557 42.785C9.66784 38.8364 7.23793 33.4906 7.23793 27.5981V22.8598C7.23793 21.9486 8.02765 21.1588 8.93887 21.1588ZM46.8454 24.5607H10.6398V27.5981C10.6398 32.5794 12.6445 37.0747 15.9248 40.3551C16.5931 40.9626 17.2613 41.5701 17.9295 42.1168V36.7102C17.9295 33.7336 19.1445 31 21.1491 29.056C23.0931 27.1121 25.766 25.8972 28.7426 25.8972C31.7192 25.8972 34.4529 27.1121 36.3968 29.056C38.3407 31 39.5557 33.7336 39.5557 36.7102V42.056C40.2847 41.5701 40.9529 40.9626 41.5604 40.3551C44.8407 37.0747 46.8454 32.5794 46.8454 27.5981V24.5607ZM19.9949 43.3925C22.6071 44.8504 25.5837 45.7009 28.7426 45.7009C31.9015 45.7009 34.9389 44.8504 37.551 43.3925V36.7102C37.551 34.2803 36.579 32.0934 34.9389 30.514C33.3594 28.8738 31.1725 27.9018 28.7426 27.9018C26.3127 27.9018 24.1258 28.8738 22.5463 30.4532C20.9669 32.0934 19.9949 34.2803 19.9949 36.7102V43.3925ZM32.3267 32.7009C31.4155 31.7897 30.1398 31.1822 28.7426 31.1822C27.3454 31.1822 26.0697 31.7897 25.1585 32.7009C24.2473 33.6121 23.7005 34.8878 23.7005 36.285C23.7005 37.6822 24.2473 38.8972 25.1585 39.8691C26.0697 40.7803 27.3454 41.3271 28.7426 41.3271C30.1398 41.3271 31.4155 40.7803 32.3267 39.8691C33.2379 38.8972 33.8454 37.6822 33.8454 36.285C33.8454 34.8878 33.2379 33.6121 32.3267 32.7009ZM52.7987 3.90651H3.65382V15.813H52.7987V3.90651Z" fill="white"/>
</svg>
