<svg width="55" height="55" viewBox="0 0 55 55" fill="none" xmlns="http://www.w3.org/2000/svg">
<g filter="url(#filter0_d)">
<path d="M27.5531 3.97698C26.389 3.97698 25.419 3.00697 25.419 1.84295C25.419 0.775926 26.389 -0.194092 27.5531 -0.194092C35.1192 -0.194092 42.1033 2.90996 47.0504 7.95406C52.0945 12.9011 55.1986 19.8853 55.1986 27.5484C55.1986 35.1145 52.0945 42.0987 47.0504 47.0458C42.1033 52.0899 35.1192 55.1939 27.5531 55.1939C19.8899 55.1939 12.9058 52.0899 7.9587 47.0458C2.9146 42.0987 -0.189453 35.1145 -0.189453 27.5484C-0.189453 26.3844 0.780565 25.4144 1.84758 25.4144C3.01161 25.4144 3.98162 26.3844 3.98162 27.5484C3.98162 34.0475 6.60067 39.9646 10.8687 44.2327C15.1368 48.4038 21.0539 51.1198 27.5531 51.1198C34.0522 51.1198 39.9693 48.4038 44.2374 44.2327C48.4084 39.9646 51.1245 34.0475 51.1245 27.5484C51.1245 21.0493 48.4084 15.1322 44.2374 10.8641C39.9693 6.59603 34.0522 3.97698 27.5531 3.97698ZM16.0098 33.3685H13.3908L17.7559 23.5713H12.5178V21.7283H20.1809V23.5713L16.0098 33.3685ZM27.5531 27.0634C28.3291 27.2574 28.9111 27.6454 29.2991 28.1304C29.6871 28.7124 29.8811 29.3914 29.8811 30.1675C29.8811 30.8465 29.6871 31.5255 29.2991 32.0105C29.0081 32.5925 28.4261 32.9805 27.8441 33.1745C27.262 33.4655 26.583 33.5625 25.807 33.5625C25.128 33.5625 24.449 33.4655 23.77 33.2715C23.188 32.9805 22.703 32.5925 22.315 32.1075C21.83 31.6225 21.6359 31.0405 21.6359 30.2645C21.6359 29.7795 21.7329 29.3914 21.927 28.9064C22.121 28.5184 22.315 28.1304 22.703 27.8394C22.994 27.5484 23.479 27.3544 23.867 27.2574C23.285 27.0634 22.8 26.7724 22.412 26.2874C22.024 25.8024 21.927 25.2204 21.927 24.5414C21.927 23.8623 22.024 23.2803 22.412 22.7953C22.8 22.4073 23.285 22.0193 23.867 21.8253C24.449 21.5343 25.128 21.4373 25.807 21.4373C26.777 21.4373 27.7471 21.7283 28.4261 22.2133C29.2021 22.6013 29.5901 23.3773 29.5901 24.3474C29.5901 25.0264 29.3961 25.6084 29.0081 25.9964C28.6201 26.4814 28.1351 26.8694 27.5531 27.0634ZM25.516 28.2274C25.225 28.3244 24.934 28.5184 24.74 28.7124C24.546 28.9064 24.352 29.1004 24.255 29.2944C24.158 29.5854 24.061 29.8765 24.061 30.1675C24.061 30.4585 24.158 30.7495 24.255 31.0405C24.449 31.3315 24.643 31.5255 24.934 31.6225C25.225 31.8165 25.516 31.9135 25.807 31.9135C26.292 31.9135 26.777 31.7195 27.068 31.4285C27.3591 31.1375 27.5531 30.7495 27.5531 30.2645C27.5531 29.6825 27.3591 29.2944 26.971 29.0034C26.68 28.7124 26.195 28.4214 25.516 28.2274ZM26.001 26.3844C26.389 26.0934 26.68 25.8994 26.971 25.6084C27.165 25.3174 27.262 25.0264 27.262 24.6384C27.262 24.1534 27.165 23.7653 26.874 23.5713C26.583 23.2803 26.195 23.1833 25.807 23.1833C25.322 23.1833 24.934 23.2803 24.643 23.4743C24.352 23.7653 24.158 24.1534 24.158 24.5414C24.158 24.8324 24.255 25.1234 24.449 25.4144C24.643 25.6084 24.837 25.8024 25.031 25.8994C25.322 25.9964 25.613 26.1904 26.001 26.3844ZM35.7012 24.5414C35.7012 25.1234 35.7012 25.6084 35.5072 26.0934C35.4102 26.4814 35.2162 26.8694 34.8282 27.1604C34.5372 27.4514 34.0522 27.6454 33.4702 27.6454C32.9852 27.6454 32.5001 27.4514 32.2091 27.1604C31.8211 26.8694 31.6271 26.4814 31.5301 26.0934C31.3361 25.6084 31.2391 25.1234 31.2391 24.5414C31.2391 23.7653 31.4331 22.9893 31.8211 22.4073C32.1121 21.8253 32.6941 21.5343 33.4702 21.5343C34.3432 21.5343 34.9252 21.8253 35.2162 22.4073C35.6042 22.9893 35.7012 23.7653 35.7012 24.5414ZM34.3432 24.5414C34.3432 23.1833 34.0522 22.5043 33.4702 22.5043C32.8882 22.5043 32.5971 23.2803 32.5971 24.7354C32.5971 25.2204 32.6941 25.7054 32.7912 26.0934C32.8882 26.4814 33.1792 26.6754 33.4702 26.6754C34.0522 26.6754 34.3432 25.9964 34.3432 24.6384V24.5414ZM34.1492 33.9505H32.9852L39.6783 21.0493H40.8423L34.1492 33.9505ZM42.4913 30.4585C42.4913 31.0405 42.4913 31.5255 42.2973 32.0105C42.2003 32.3985 42.0063 32.7865 41.6183 33.0775C41.3273 33.3685 40.8423 33.4655 40.3573 33.4655C39.4843 33.4655 38.9023 33.1745 38.6113 32.5925C38.3203 32.0105 38.1262 31.3315 38.1262 30.4585C38.1262 30.0705 38.1262 29.6825 38.2233 29.2944C38.3203 29.0034 38.4173 28.6154 38.6113 28.3244C38.7083 28.0334 38.9993 27.8394 39.2903 27.6454C39.5813 27.5484 39.8723 27.4514 40.3573 27.4514C41.1333 27.4514 41.7153 27.7424 42.0063 28.3244C42.3943 28.9064 42.4913 29.5854 42.4913 30.4585ZM41.1333 30.4585C41.1333 29.1004 40.8423 28.4214 40.3573 28.4214C39.7753 28.4214 39.4843 29.1004 39.4843 30.4585V30.5555C39.4843 31.9135 39.7753 32.4955 40.3573 32.4955C40.8423 32.4955 41.1333 31.8165 41.1333 30.5555V30.4585Z" fill="white"/>
</g>
<defs>
<filter id="filter0_d" x="-25.1895" y="-15.1941" width="105.388" height="105.388" filterUnits="userSpaceOnUse" color-interpolation-filters="sRGB">
<feFlood flood-opacity="0" result="BackgroundImageFix"/>
<feColorMatrix in="SourceAlpha" type="matrix" values="0 0 0 0 0 0 0 0 0 0 0 0 0 0 0 0 0 0 127 0"/>
<feOffset dy="10"/>
<feGaussianBlur stdDeviation="12.5"/>
<feColorMatrix type="matrix" values="0 0 0 0 0.0705882 0 0 0 0 0.521569 0 0 0 0 0.768627 0 0 0 0.5 0"/>
<feBlend mode="normal" in2="BackgroundImageFix" result="effect1_dropShadow"/>
<feBlend mode="normal" in="SourceGraphic" in2="effect1_dropShadow" result="shape"/>
</filter>
</defs>
</svg>
