<svg width="35" height="35" viewBox="0 0 35 35" fill="none" xmlns="http://www.w3.org/2000/svg">
<path d="M17.5188 7.96993C20.1504 7.96993 22.5188 9.02256 24.2481 10.7519C25.9774 12.4812 27.0677 14.8872 27.0677 17.5188C27.0677 20.1504 25.9774 22.5188 24.2481 24.2481C22.5188 25.9774 20.1504 27.0677 17.5188 27.0677C14.8872 27.0677 12.4812 25.9774 10.7519 24.2481C9.02256 22.5188 7.96992 20.1504 7.96992 17.5188C7.96992 14.8872 9.02256 12.4812 10.7519 10.7519C12.4812 9.02256 14.8872 7.96993 17.5188 7.96993ZM7.4812 25.3008C8.08271 24.6617 9.09774 24.6617 9.73684 25.3008C10.3383 25.9399 10.3383 26.9173 9.73684 27.5564L7.36842 29.9248C6.72932 30.5263 5.71429 30.5263 5.11278 29.9248C4.47368 29.2857 4.47368 28.2707 5.11278 27.6692L7.4812 25.3008ZM27.6316 5.15038C28.2331 4.54888 29.2481 4.54888 29.8872 5.15038C30.4887 5.78948 30.4887 6.80451 29.8872 7.40602L27.5188 9.77444C26.8797 10.3759 25.8647 10.3759 25.2632 9.77444C24.6241 9.13534 24.6241 8.1579 25.2632 7.5188L27.6316 5.15038ZM25.2632 27.5564C24.6241 26.9173 24.6241 25.9399 25.2632 25.3008C25.8647 24.6617 26.8797 24.6617 27.5188 25.3008L29.8872 27.6692C30.4887 28.2707 30.4887 29.2857 29.8872 29.9248C29.2481 30.5263 28.2331 30.5263 27.6316 29.9248L25.2632 27.5564ZM5.11278 7.40602C4.47368 6.80451 4.47368 5.78948 5.11278 5.15038C5.71429 4.54888 6.72932 4.54888 7.36842 5.15038L9.73684 7.5188C10.3383 8.1579 10.3383 9.13534 9.73684 9.77444C9.09774 10.3759 8.08271 10.3759 7.4812 9.77444L5.11278 7.40602ZM30.0752 19.1353C29.1729 19.1353 28.4586 18.4211 28.4586 17.5188C28.4586 16.6541 29.1729 15.9399 30.0752 15.9399H33.4211C34.2857 15.9399 35 16.6541 35 17.5188C35 18.4211 34.2857 19.1353 33.4211 19.1353H30.0752ZM1.57895 19.1353C0.714286 19.1353 0 18.4211 0 17.5188C0 16.6541 0.714286 15.9399 1.57895 15.9399H4.92481C5.78947 15.9399 6.50376 16.6541 6.50376 17.5188C6.50376 18.4211 5.78947 19.1353 4.92481 19.1353H1.57895ZM15.9023 30.1128C15.9023 29.2481 16.6165 28.5338 17.4812 28.5338C18.3835 28.5338 19.0977 29.2481 19.0977 30.1128V33.4586C19.0977 34.3233 18.3835 35.0376 17.4812 35.0376C16.6165 35.0376 15.9023 34.3233 15.9023 33.4586V30.1128ZM15.9023 1.61654C15.9023 0.751883 16.6165 0.0375977 17.4812 0.0375977C18.3835 0.0375977 19.0977 0.751883 19.0977 1.61654V4.96241C19.0977 5.82707 18.3835 6.54136 17.4812 6.54136C16.6165 6.54136 15.9023 5.82707 15.9023 4.96241V1.61654ZM21.9925 13.0075C20.8647 11.8421 19.2857 11.1278 17.5188 11.1278C15.7519 11.1278 14.1353 11.8421 13.0075 13.0075C11.8421 14.1353 11.1278 15.7519 11.1278 17.5188C11.1278 19.2857 11.8421 20.8647 13.0075 21.9925V22.0301C14.1353 23.1579 15.7519 23.8722 17.5188 23.8722C19.2857 23.8722 20.8647 23.1579 21.9925 22.0301L22.0301 21.9925C23.1579 20.8647 23.8722 19.2857 23.8722 17.5188C23.8722 15.7519 23.1579 14.1353 22.0301 13.0075H21.9925Z" fill="white"/>
</svg>
