<svg width="153" height="241" viewBox="0 0 153 241" fill="none" xmlns="http://www.w3.org/2000/svg">
<path fill-rule="evenodd" clip-rule="evenodd" d="M73.7454 207.755H91.1065C95.4468 207.755 98.919 211.227 98.919 215.567V232.928C98.919 237.269 95.4468 240.741 91.1065 240.741H73.7454C69.4051 240.741 65.9329 237.269 65.9329 232.928V215.567C65.9329 211.227 69.4051 207.755 73.7454 207.755ZM34.6829 76.3889C34.6829 85.9375 26.8704 93.4606 17.3218 93.4606C7.77315 93.4606 0.25 85.9375 0.25 76.3889C0.25 55.2662 8.6412 36.169 22.5301 22.2801C36.1296 8.68056 55.2269 0 76.3495 0C97.1829 0 116.28 8.68056 130.169 22.2801C144.058 36.169 152.449 55.2662 152.449 76.3889C152.449 84.4907 151.292 93.1713 148.688 100.984C146.083 109.086 142.322 116.319 137.113 122.106C132.484 127.025 127.854 131.655 123.514 135.995C112.229 147.28 102.681 156.829 100.655 168.692C99.2083 178.241 90.2384 184.606 80.6898 182.87C71.4306 181.424 65.0648 172.454 66.5116 163.194C70.2732 140.046 83.5833 127.025 99.2083 111.69C102.97 107.639 107.021 103.588 111.361 98.9583C113.387 96.9329 114.833 94.0394 115.701 90.5671C117.148 86.2269 117.727 81.3079 117.727 76.3889C117.727 64.8148 113.097 54.3981 105.574 46.875C98.0509 39.3519 87.6343 34.7222 76.3495 34.7222C64.7755 34.7222 54.3588 39.3519 46.8357 46.875C39.3125 54.3981 34.6829 64.8148 34.6829 76.3889Z" fill="#E0EBF1"/>
</svg>
