<svg width="14" height="25" viewBox="0 0 14 25" fill="none" xmlns="http://www.w3.org/2000/svg">
<g clip-path="url(#clip0)">
<path fill-rule="evenodd" clip-rule="evenodd" d="M8.1271 25V13.7453C8.1271 13.5147 8.3116 13.3302 8.58835 13.3302H12.2784L13.2009 8.67154H8.91123C8.6806 8.67154 8.4961 8.48704 8.4961 8.25641V4.2435C8.4961 4.01287 8.6806 3.78224 8.91123 3.78224H13.7083V0.737961C12.2784 0.276706 10.9869 0.046079 9.87986 -4.64951e-05C8.3116 -0.046172 7.06621 0.322832 6.09758 1.01471C5.08282 1.7066 4.39093 2.81361 3.92968 4.19737C3.51455 5.30438 3.33005 6.68815 3.28392 8.21029V8.25641C3.28392 8.48704 3.09942 8.67154 2.86879 8.67154H-0.0371094V13.3302H2.68429C2.91492 13.3302 3.09942 13.5147 3.09942 13.7453V25H8.1271Z" fill="#3B3943"/>
</g>
<defs>
<clipPath id="clip0">
<rect width="13.6714" height="25" fill="white"/>
</clipPath>
</defs>
</svg>
