<svg width="119" height="80" viewBox="0 0 119 80" fill="none" xmlns="http://www.w3.org/2000/svg">
<g clip-path="url(#clip0)">
<path fill-rule="evenodd" clip-rule="evenodd" d="M41.2151 45.5012V55.7908H3.97875C2.45058 55.7908 1.1007 58.3505 1.0625 58.8599H44.3733V48.9013C44.3733 47.3222 44.4624 46.0233 44.4624 44.4442C44.7553 44.3678 44.7171 44.3041 44.9336 44.1131L52.9055 37.4274C53.2366 37.1472 53.5168 36.9562 53.8352 36.6633L55.7326 35.0714C56.051 34.804 56.3184 34.5493 56.6495 34.2946C57.6938 33.4796 58.3814 32.741 59.5148 31.9769L60.4827 32.7155C60.8138 32.9829 61.0939 33.2122 61.3996 33.5051C61.7052 33.7725 62.0236 33.989 62.3292 34.2692C64.2776 36.0011 66.9137 38.115 68.964 39.8597L74.147 44.2277C74.3763 44.4315 74.3635 44.5333 74.6564 44.6097V58.8599H117.738C118.044 58.8599 117.967 58.6689 117.878 58.4906L116.974 57.0388C116.566 56.5167 115.917 55.7908 115.064 55.7908H77.8146V45.0937C77.8146 42.5722 76.5666 42.2156 75.3314 41.1077L72.9754 39.172C69.9318 36.7015 66.3534 33.6961 63.3735 31.3656L61.5906 29.9139C59.2219 28.0419 59.8332 28.0928 56.9297 30.3596L42.2975 42.1265C41.5716 42.9033 41.2151 44.0112 41.2151 45.5012Z" fill="white"/>
<path fill-rule="evenodd" clip-rule="evenodd" d="M26.0859 8.09943V53.5242H29.2441V16.1987C29.2441 13.8683 29.3206 11.8052 29.3206 9.47478C33.0518 7.5009 37.3689 5.60342 41.2148 3.56587V39.9107C41.7878 39.6178 43.5707 38.1151 44.373 37.5676V3.73142C44.7932 3.75689 52.6123 7.208 53.6566 7.64098L59.2726 10.0351V17.3321C59.8202 17.2047 60.3933 16.8482 60.9281 16.6317C61.1701 16.5298 62.4053 16.0459 62.52 15.8676C62.6728 15.5365 62.52 9.69127 62.52 8.65976C62.1507 8.46873 61.6922 8.30318 61.272 8.1249L55.1211 5.3742C52.4723 4.13893 49.1994 2.76358 46.4869 1.54105C41.6987 -0.611117 43.1887 -0.190871 40.4634 0.942518C39.6993 1.24815 39.0753 1.59199 38.3877 1.94856C37.0251 2.6235 35.6242 3.28571 34.2616 3.97338L26.5317 7.74286C26.2897 7.832 26.0859 7.832 26.0859 8.09943Z" fill="white"/>
<path fill-rule="evenodd" clip-rule="evenodd" d="M88.5887 22.6681C88.7798 22.961 88.6779 26.0428 88.6779 26.3994C88.6652 27.6856 88.6652 28.9845 88.6652 30.2834C88.6652 37.8224 88.8052 46.049 88.6524 53.4352H91.6705C91.5559 48.0102 91.6705 42.4451 91.6705 37.0074C91.6705 35.9886 91.7597 21.1272 91.6069 20.5669L85.7744 17.7015C85.0994 17.3704 84.4627 17.0903 83.8132 16.7592C83.4821 16.5936 83.1638 16.4408 82.8327 16.2753C82.5016 16.1097 82.1959 15.9951 81.8393 15.8168L76.9237 13.4354C75.9686 13.0024 76.0068 13.0534 74.7461 13.601L59.2734 20.1593C59.2734 20.7069 59.3498 20.898 59.3626 21.3691V25.5079L62.368 27.6092C62.4953 27.6728 62.4444 27.7747 62.559 27.571C62.6609 27.3927 62.5972 22.6554 62.5972 22.0186L74.5806 16.7592V37.7333C74.8607 37.9243 75.1154 38.0898 75.3828 38.2936C75.6757 38.5101 77.535 39.9236 77.8152 40V17.4851C78.0953 17.5487 78.2482 17.6633 78.4901 17.7907L83.1892 20.0575C83.6477 20.2867 84.017 20.465 84.4882 20.7069C84.9594 20.9362 85.3796 21.1017 85.8635 21.3437L88.5887 22.6681Z" fill="white"/>
<path fill-rule="evenodd" clip-rule="evenodd" d="M106.149 76.0901C106.429 76.0901 106.493 75.8227 106.646 75.5553L112.262 66.1953C112.529 65.8514 112.249 66.0807 112.555 65.966C112.746 66.3481 113.179 70.2831 113.281 71.0217C113.472 72.5371 113.637 75.1096 113.815 76.1665L118.005 76.1411C117.61 73.7215 117.025 71.3019 116.732 68.8313C116.643 67.9909 115.764 61.6999 115.624 61.3433C115.267 61.3561 114.949 61.458 114.58 61.458C114.198 61.458 113.879 61.3561 113.523 61.3306C113.242 61.7254 112.975 62.2348 112.72 62.6805C112.084 63.8266 107.448 71.3528 107.041 71.6712C106.85 71.5438 106.646 71.1491 106.518 70.958C105.092 68.8059 102.825 65.0491 101.526 62.8333C100.368 60.8722 100.839 61.3943 99.6035 61.4197C99.196 61.4325 98.9286 61.3561 98.5211 61.3179C98.4701 62.2348 96.8528 71.0854 96.5472 72.5626C96.318 73.696 95.9487 75.0714 95.8086 76.1538C96.3562 76.1029 97.8079 76.1793 98.0626 76.1156C98.2282 74.3327 98.763 67.5069 99.2979 66.1825C99.6672 66.3099 105.156 75.5807 105.436 76.0774L106.149 76.0901Z" fill="white"/>
<path fill-rule="evenodd" clip-rule="evenodd" d="M50.4989 68.2202C51.1229 67.4816 51.1101 67.5835 51.8742 66.9213C52.1416 66.6921 52.8548 65.737 53.2623 65.8006L53.3005 76.1539H57.1464V61.2925C56.7261 61.2416 56.1531 61.2798 55.7074 61.2671C55.1216 61.2671 55.0197 61.4581 54.765 61.8019L52.0015 64.7818C51.5431 65.1257 51.0082 65.7752 50.6007 66.2209L47.6972 69.0607C47.4171 69.3154 45.0993 71.4803 44.8701 71.5695H44.6918C44.539 71.1365 44.6536 62.5915 44.6536 61.3053C42.2722 61.4836 43.1382 61.4963 40.7695 61.3562L40.795 76.1539H42.6543L50.4989 68.2202Z" fill="white"/>
<path fill-rule="evenodd" clip-rule="evenodd" d="M83.5967 62.0183C85.838 61.891 87.2006 62.3239 88.5123 63.4701C88.8179 63.7375 89.5565 64.7435 89.7857 65.3548C91.3012 69.4554 89.6329 74.8422 85.0484 75.3643C80.9988 75.81 78.3118 73.3777 78.2481 69.4681C78.2099 67.5961 78.6047 65.6477 79.5216 64.2851C80.3748 62.9989 82.0176 62.1075 83.5967 62.0183ZM73.9692 69.3026C74.0329 72.0915 75.8158 74.0017 77.4331 74.9568C79.5598 76.192 82.2595 76.5614 84.9338 76.4467C87.7864 76.3194 90.5244 75.3261 92.3582 73.7215C92.9185 73.2376 93.4661 72.4735 93.8481 71.8113C95.6437 68.704 94.4084 64.3997 91.1611 62.4513C86.4238 59.586 73.7655 60.1336 73.9692 69.3026Z" fill="white"/>
<path fill-rule="evenodd" clip-rule="evenodd" d="M32.8872 67.2777C31.5628 67.4051 25.4119 67.5197 24.3422 67.2395C23.9984 66.1061 24.5714 62.2602 24.2149 61.3179C23.5527 61.3561 23.0305 61.4325 22.3556 61.4325C21.6679 61.4325 21.0821 61.3306 20.4199 61.3179V76.1538C21.7825 76.1283 22.9159 76.1283 24.2658 76.1538L24.2913 68.8441C25.3865 68.6021 31.4991 68.7295 32.8999 68.8186C33.1037 69.8629 32.8235 74.4601 32.9509 76.1283C32.9636 76.1283 36.6949 76.1411 36.784 76.1283L36.7968 61.3688C36.3256 61.2924 35.4469 61.4452 34.912 61.458C34.3517 61.458 33.4093 61.3051 32.9509 61.3688C32.8363 62.7951 33.1674 66.1571 32.8872 67.2777Z" fill="white"/>
<path fill-rule="evenodd" clip-rule="evenodd" d="M75.5731 76.1411C75.5349 75.9628 75.3694 75.7463 75.2293 75.619L68.2507 67.8508C68.0724 67.6853 67.8686 67.6343 67.996 67.3414L69.4732 65.9788C69.6642 65.8133 69.7916 65.7623 69.9698 65.584C70.2118 65.3293 70.1736 65.3421 70.4283 65.1511L72.9116 63.0244C73.1026 62.8715 73.2554 62.7315 73.4337 62.5659C73.612 62.4131 73.7011 62.3494 73.9303 62.1711L74.9236 61.3434C74.0449 61.3943 73.7393 61.4835 72.7969 61.3816C72.3512 61.3306 72.3385 61.2924 72.0838 61.5471L68.3398 65.1765C68.0087 65.4694 68.0342 65.5713 67.2828 66.2208L66.2131 67.265C66.0348 67.4433 65.8438 67.5707 65.64 67.7362C64.9906 68.2711 65.4618 68.131 64.9778 68.2074L64.9524 61.3306C62.5328 61.4835 63.5261 61.5217 61.0938 61.3052V76.1921C63.1313 76.0774 62.9148 76.0774 64.9651 76.1284L64.9906 69.2007C65.3471 69.2516 65.5 69.5318 65.8947 70.0539L71.0905 76.1666C73.3318 76.0902 73.3318 76.0774 75.5731 76.1411Z" fill="white"/>
<path fill-rule="evenodd" clip-rule="evenodd" d="M1.41992 61.3431C1.5218 61.4704 1.57274 61.585 1.71282 61.776C1.82743 61.9416 1.92931 62.0944 2.04392 62.2472C2.29862 62.5911 2.4769 62.8203 2.70613 63.1259L5.45683 66.6916C6.22091 67.7486 7.34156 69.073 8.13112 70.2574C9.68475 72.6005 9.79936 71.7855 8.29667 74.1924C8.09291 74.5107 7.90189 74.8291 7.71087 75.1347C7.50711 75.4658 7.26516 75.797 7.08687 76.1153L9.06075 76.1535C9.35365 75.4913 10.7545 73.0845 11.2129 72.3331C11.9643 71.0851 12.6901 69.8498 13.4797 68.6146C13.8617 68.0288 14.2438 67.392 14.6258 66.768L18.1279 61.3431C17.6567 61.3049 16.9435 61.3813 16.3705 61.3431C15.6573 61.3049 15.721 61.5086 15.4408 62.0689C14.7914 63.3679 11.977 68.2962 11.3403 68.7547C11.111 68.6273 11.1747 68.6018 10.971 68.3089C9.60834 66.2841 8.0165 64.2466 6.61568 62.2218C6.42466 61.9543 6.16997 61.636 6.00442 61.3431C5.27854 61.3176 4.41258 61.4195 3.66123 61.4322C2.90988 61.4322 2.15854 61.3685 1.41992 61.3431Z" fill="white"/>
<path fill-rule="evenodd" clip-rule="evenodd" d="M60.2539 50.1111V53.2693C60.2539 53.4603 60.3048 53.524 60.4959 53.524H63.6541C63.8324 53.524 63.896 53.4603 63.896 53.2693V50.1111C63.896 49.9328 63.8324 49.8691 63.6541 49.8691H60.4959C60.3048 49.8691 60.2539 49.9328 60.2539 50.1111Z" fill="white"/>
<path fill-rule="evenodd" clip-rule="evenodd" d="M55.1465 50.1111V53.2693C55.1465 53.4603 55.1974 53.524 55.3884 53.524H58.7122V49.8691H55.3884C55.1974 49.8691 55.1465 49.9328 55.1465 50.1111Z" fill="white"/>
<path fill-rule="evenodd" clip-rule="evenodd" d="M60.2539 44.7752V47.8442C60.2539 48.0352 60.3048 48.0989 60.4959 48.0989H63.896V44.5332H60.4959C60.3048 44.5332 60.2539 44.5841 60.2539 44.7752Z" fill="white"/>
<path fill-rule="evenodd" clip-rule="evenodd" d="M55.3132 48.0993H58.7134V44.6099L55.2495 44.5845C55.2623 45.3613 55.1477 47.488 55.3132 48.0993Z" fill="white"/>
<path fill-rule="evenodd" clip-rule="evenodd" d="M88.5879 22.6681V53.5243H91.7461V20.8089C91.6952 20.5542 91.7588 20.707 91.606 20.5669C91.7588 21.1272 91.6697 35.9886 91.6697 37.0074C91.6697 42.4451 91.5551 48.0102 91.6697 53.4352H88.6516C88.8044 46.0491 88.6643 37.8224 88.6643 30.2835C88.6643 28.9845 88.6643 27.6856 88.677 26.3994C88.677 26.0428 88.7789 22.961 88.5879 22.6681Z" fill="white"/>
<path fill-rule="evenodd" clip-rule="evenodd" d="M55.3133 48.0989C55.1478 47.4877 55.2624 45.361 55.2497 44.5841L58.7135 44.6096C58.688 44.5969 58.6753 44.5587 58.6626 44.5841L55.1478 44.5332V47.2075C55.1478 48.4428 55.0969 47.9334 55.3133 48.0989Z" fill="white"/>
<path fill-rule="evenodd" clip-rule="evenodd" d="M0.986328 79.9998H1.06274V79.5923H0.986328V79.9998Z" fill="white"/>
<path fill-rule="evenodd" clip-rule="evenodd" d="M112.312 66.5517H112.491L112.414 66.4116L112.312 66.5517Z" fill="white"/>
</g>
<defs>
<clipPath id="clip0">
<rect x="1" width="116.981" height="80" fill="white"/>
</clipPath>
</defs>
</svg>
