<svg width="23" height="23" viewBox="0 0 23 23" fill="none" xmlns="http://www.w3.org/2000/svg">
<g clip-path="url(#clip0)">
<path fill-rule="evenodd" clip-rule="evenodd" d="M6.13333 -0.0219727H16.8667C20.24 -0.0219727 23 2.73803 23 6.11136V16.8885C23 20.2618 20.24 23.0218 16.8667 23.0218H6.13333C2.76 23.0218 0 20.2618 0 16.8885V6.11136C0 2.73803 2.76 -0.0219727 6.13333 -0.0219727ZM18.4219 3.43898C18.9914 3.43898 19.4733 3.92088 19.4733 4.49041C19.4733 5.08184 18.9914 5.56374 18.4219 5.56374C17.8305 5.56374 17.3705 5.08184 17.3705 4.49041C17.3705 3.92088 17.8305 3.43898 18.4219 3.43898ZM11.5 4.9285C13.3181 4.9285 14.939 5.67326 16.1438 6.85612C17.3267 8.03898 18.0714 9.68184 18.0714 11.4999C18.0714 13.318 17.3267 14.939 16.1438 16.1437C14.939 17.3266 13.3181 18.0714 11.5 18.0714C9.6819 18.0714 8.03905 17.3266 6.85619 16.1437C5.67333 14.939 4.92857 13.318 4.92857 11.4999C4.92857 9.68184 5.67333 8.03898 6.85619 6.85612C8.03905 5.67326 9.6819 4.9285 11.5 4.9285ZM14.1286 8.87136C13.4495 8.19231 12.5295 7.77612 11.5 7.77612C10.4705 7.77612 9.52857 8.19231 8.87143 8.87136C8.19238 9.5285 7.77619 10.4704 7.77619 11.4999C7.77619 12.5295 8.19238 13.4495 8.87143 14.1285C9.52857 14.8076 10.4705 15.2237 11.5 15.2237C12.5295 15.2237 13.4495 14.8076 14.1286 14.1285C14.8076 13.4495 15.2238 12.5295 15.2238 11.4999C15.2238 10.4704 14.8076 9.5285 14.1286 8.87136Z" fill="#3B3943"/>
</g>
<defs>
<clipPath id="clip0">
<rect width="23" height="23" fill="white"/>
</clipPath>
</defs>
</svg>
