<svg width="31" height="18" viewBox="0 0 31 18" fill="none" xmlns="http://www.w3.org/2000/svg">
<g clip-path="url(#clip0)">
<path fill-rule="evenodd" clip-rule="evenodd" d="M29.704 1.19952C29.9435 0.510821 29.704 -0.0281619 28.7158 -0.0281619H25.3921C24.5537 -0.0281619 24.1644 0.420991 23.9249 0.930031C23.9249 0.930031 22.2181 5.03229 19.8526 7.72721C19.074 8.4758 18.7147 8.74529 18.2955 8.74529C18.0859 8.74529 17.7864 8.4758 17.7864 7.7871V1.16958C17.7864 0.33116 17.517 -0.0581055 16.8283 -0.0581055H11.5881C11.0791 -0.0581055 10.7497 0.33116 10.7497 0.720426C10.7497 1.5289 11.9475 1.70856 12.0972 3.98427V8.86506C12.0972 9.94303 11.8876 10.1227 11.4684 10.1227C10.3305 10.1227 7.60565 5.96054 5.95876 1.22947C5.62938 0.301217 5.32995 -0.0581055 4.49153 -0.0581055H1.13785C0.149718 -0.0581055 0 0.391047 0 0.870144C0 1.73851 1.13785 6.1402 5.24012 11.9193C7.99492 15.9018 11.8876 18.0278 15.391 18.0278C17.517 18.0278 17.7864 17.5487 17.7864 16.7402V13.7459C17.7864 12.7577 17.9661 12.608 18.6548 12.608C19.1339 12.608 20.0023 12.8775 21.9785 14.7639C24.2243 17.0097 24.6136 18.0577 25.8712 18.0577H29.1949C30.1531 18.0577 30.6023 17.5786 30.3627 16.6504C30.0633 15.6922 28.9554 14.3447 27.548 12.7278C26.7695 11.8295 25.6017 10.8413 25.2723 10.3622C24.7633 9.70348 24.913 9.46393 25.2723 8.86506C25.2424 8.86506 29.2848 3.14585 29.704 1.19952Z" fill="#3B3943"/>
</g>
<defs>
<clipPath id="clip0">
<rect width="30.4226" height="18" fill="white"/>
</clipPath>
</defs>
</svg>
